<svg version="1" xmlns="http://www.w3.org/2000/svg" viewBox="0 0 750 500"><path d="M97.945 323.368c17.97 0 32.67 14.702 32.67 32.67v.002c0 32.781 26.825 59.607 59.61 59.607h421.318c42.59 0 77.435-34.846 77.435-77.436 0-42.588-34.847-77.434-77.435-77.434h-2.035c-8.548 0-15.541-6.994-15.541-15.54 0-8.547 6.993-15.54 15.541-15.54h8.547c20.777 0 37.777-16.999 37.777-37.777 0-20.752-16.961-37.737-37.704-37.776h-36.862c-17.966 0-32.669-14.702-32.669-32.67 0-32.786-26.824-59.609-59.609-59.609H184.382c-42.59 0-77.437 34.849-77.437 77.436 0 42.588 34.847 77.436 77.437 77.436 8.545 0 15.54 6.994 15.54 15.54 0 8.545-6.995 15.54-15.54 15.54H97.945c-49.426-.001-49.43 75.551 0 75.551z" fill-rule="evenodd" clip-rule="evenodd" fill="#bfd2db"/><path d="M301.559 323.79h74.228l11.636 75.137h-97.499l11.635-75.137z" fill-rule="evenodd" clip-rule="evenodd" fill="#efecf5"/><path d="M279.456 397.84h118.432c6.208 0 11.285 5.078 11.285 11.284a3.521 3.521 0 0 1-3.513 3.514H271.684a3.524 3.524 0 0 1-3.514-3.514c0-6.206 5.08-11.284 11.286-11.284z" fill-rule="evenodd" clip-rule="evenodd" fill="#fff"/><path d="M183.62 133.57h306.977c6.371 0 11.583 5.212 11.583 11.584v183.382c0 6.37-5.212 11.584-11.583 11.584H183.62c-6.372 0-11.583-5.214-11.583-11.584V145.153c-.001-6.371 5.211-11.583 11.583-11.583z" fill-rule="evenodd" clip-rule="evenodd" fill="#454f55"/><path d="M502.18 322.774v22.203c0 6.372-5.212 11.584-11.583 11.584H183.62c-6.372 0-11.583-5.212-11.583-11.584v-22.203H502.18zM183.015 144.548h308.188v167.248H183.015V144.548z" fill-rule="evenodd" clip-rule="evenodd" fill="#fff"/><path d="M355.355 157.231H469.25c3.674 0 6.682 3.006 6.682 6.682V274.32c0 3.675-3.008 6.683-6.682 6.683H355.355c-3.676 0-6.682-3.008-6.682-6.683V163.913c.001-3.676 3.007-6.682 6.682-6.682z" fill-rule="evenodd" clip-rule="evenodd" fill="#bfd2db"/><path d="M337.108 329.855a9.17 9.17 0 1 1-.001 18.335 9.17 9.17 0 0 1 .001-18.335z" fill-rule="evenodd" clip-rule="evenodd" fill="#e4e2f1"/><path d="M360.288 154.025h113.895c3.676 0 6.684 3.006 6.684 6.682v110.407c0 3.676-3.008 6.684-6.684 6.684H360.288c-3.675 0-6.681-3.008-6.681-6.684V160.706c0-3.675 3.006-6.681 6.681-6.681z" fill-rule="evenodd" clip-rule="evenodd" fill="#dd87a2"/><path d="M365.37 158.815h89.78c1.199 0 2.179.98 2.179 2.179V171.6c0 1.198-.98 2.179-2.179 2.179h-89.78a2.184 2.184 0 0 1-2.177-2.179v-10.606c0-1.2.979-2.179 2.177-2.179z" fill-rule="evenodd" clip-rule="evenodd" fill="#0f1630"/><path d="M463.46 158.815h10.398c1.177 0 2.139.96 2.139 2.136v10.69a2.145 2.145 0 0 1-2.139 2.137H463.46a2.142 2.142 0 0 1-2.136-2.137v-10.69a2.14 2.14 0 0 1 2.136-2.136z" fill-rule="evenodd" clip-rule="evenodd" fill="#e74d91"/><path d="M367.112 177.99h86.296a3.93 3.93 0 0 1 3.921 3.921v78.739a3.93 3.93 0 0 1-3.921 3.92h-86.296a3.93 3.93 0 0 1-3.919-3.92v-78.739a3.93 3.93 0 0 1 3.919-3.921z" fill-rule="evenodd" clip-rule="evenodd" fill="#fff"/><path d="M449.102 183.289a2.052 2.052 0 1 1-.003 4.105 2.052 2.052 0 0 1 .003-4.105zm-15.004 0a2.052 2.052 0 1 1 .093 4.103 2.052 2.052 0 0 1-.093-4.103zm7.502 0a2.052 2.052 0 1 1 0 4.105 2.052 2.052 0 0 1 0-4.105z" fill-rule="evenodd" clip-rule="evenodd" fill="#f7bd8e"/><path d="M376.99 213.359h73.457c.389 0 .705.316.705.703a.704.704 0 0 1-.705.703H376.99a.705.705 0 0 1-.703-.703c0-.386.316-.703.703-.703zm-6.45 1.876c.647 0 1.174-.527 1.174-1.172s-.527-1.172-1.174-1.172c-.646 0-1.172.526-1.172 1.172s.527 1.172 1.172 1.172zm6.45 4.126h73.457a.704.704 0 0 1 0 1.407H376.99a.705.705 0 0 1 0-1.407zm-6.45 1.876c.647 0 1.174-.526 1.174-1.172 0-.645-.527-1.172-1.174-1.172-.646 0-1.172.527-1.172 1.172.002.646.526 1.17 1.172 1.172zm6.45 4.127h73.457c.389 0 .705.316.705.703a.704.704 0 0 1-.705.703H376.99a.705.705 0 0 1-.703-.703c0-.387.316-.703.703-.703zm-6.45 1.875c.647 0 1.174-.527 1.174-1.172s-.527-1.172-1.174-1.172c-.646 0-1.172.527-1.172 1.172.002.646.526 1.17 1.172 1.172zm6.45 4.127h73.457c.389 0 .705.316.705.703a.706.706 0 0 1-.705.704H376.99a.705.705 0 0 1 0-1.407zm-6.45 1.875c.647 0 1.174-.527 1.174-1.172a1.175 1.175 0 0 0-2.346 0c.002.646.526 1.17 1.172 1.172zm6.45 4.129h73.457a.704.704 0 1 1 0 1.407H376.99a.703.703 0 1 1 0-1.407zm-6.45 1.873c.647 0 1.174-.526 1.174-1.172s-.527-1.172-1.174-1.172c-.646 0-1.172.527-1.172 1.172.002.647.525 1.17 1.172 1.172zm6.45 4.127h73.457a.705.705 0 0 1 0 1.408H376.99a.706.706 0 0 1 0-1.408zm-6.45 1.876c.647 0 1.174-.527 1.174-1.172a1.175 1.175 0 0 0-2.346 0c.002.646.526 1.17 1.172 1.172zm6.45 4.126h73.457a.704.704 0 0 1 0 1.407H376.99a.705.705 0 0 1 0-1.407zm-6.45 1.876c.647 0 1.174-.527 1.174-1.171 0-.647-.527-1.174-1.174-1.174-.646 0-1.172.527-1.172 1.174a1.175 1.175 0 0 0 1.172 1.171zm6.45 4.128h73.457a.703.703 0 1 1 0 1.405H376.99a.703.703 0 0 1 0-1.405zm-6.45 1.874c.647 0 1.174-.527 1.174-1.171 0-.646-.527-1.174-1.174-1.174-.646 0-1.172.527-1.172 1.174a1.175 1.175 0 0 0 1.172 1.171zm28.846-51.43h25.881c.775 0 1.408.633 1.408 1.407s-.635 1.407-1.408 1.407h-25.881a1.41 1.41 0 0 1-1.407-1.407 1.41 1.41 0 0 1 1.407-1.407zm32.069 0h18.289c.775 0 1.408.633 1.408 1.407a1.41 1.41 0 0 1-1.408 1.407h-18.289a1.41 1.41 0 0 1-1.405-1.407c0-.774.635-1.407 1.405-1.407z" fill-rule="evenodd" clip-rule="evenodd" fill="#ccc5e1"/><path d="M386.61 193.306a5.226 5.226 0 0 0-3.706-1.535 5.23 5.23 0 0 0-3.704 1.535 5.226 5.226 0 0 0-1.535 3.706c0 1.447.586 2.757 1.535 3.706a5.231 5.231 0 0 0 3.704 1.534 5.226 5.226 0 0 0 3.706-1.534 5.226 5.226 0 0 0 1.535-3.706 5.215 5.215 0 0 0-1.535-3.706zm-1.13-5.193a9.273 9.273 0 0 1 3.854 2.232.323.323 0 0 0 .385.046l2.435-1.407.013-.008a.609.609 0 0 1 .812.229l.01.018 1.714 2.968c.078.139.1.303.059.457a.62.62 0 0 1-.28.368l-.018.01-2.415 1.394a.321.321 0 0 0-.151.355c.181.732.271 1.483.269 2.237a9.29 9.29 0 0 1-.269 2.234.32.32 0 0 0 .169.366l2.416 1.394h-.001a.611.611 0 0 1 .221.826l-1.724 2.985a.606.606 0 0 1-.825.22l-.018-.01-2.417-1.395a.326.326 0 0 0-.385.046 9.263 9.263 0 0 1-3.867 2.237.321.321 0 0 0-.234.31v2.809a.604.604 0 0 1-.604.602h-3.445a.603.603 0 0 1-.605-.599v-2.813a.322.322 0 0 0-.247-.313 9.253 9.253 0 0 1-3.856-2.232.323.323 0 0 0-.4-.037l-2.418 1.397a.612.612 0 0 1-.825-.221l-.01-.018-1.715-2.967v-.002a.6.6 0 0 1-.058-.456.602.602 0 0 1 .279-.368l2.433-1.403a.325.325 0 0 0 .153-.355v-.001a9.29 9.29 0 0 1 0-4.471.323.323 0 0 0-.17-.365l-2.415-1.394a.596.596 0 0 1-.279-.368.603.603 0 0 1 .058-.457l.01-.016 1.715-2.969a.61.61 0 0 1 .825-.221l2.434 1.407a.321.321 0 0 0 .391-.053 9.244 9.244 0 0 1 3.861-2.23.32.32 0 0 0 .234-.31v-2.808a.6.6 0 0 1 .599-.603H384.629c.333 0 .603.27.604.603v2.808a.32.32 0 0 0 .247.312z" fill-rule="evenodd" clip-rule="evenodd" fill="#dd87a2"/><path d="M464.838 162.474a4.083 4.083 0 0 1 2.897-1.198h.005c1.047 0 2.096.4 2.893 1.198a4.081 4.081 0 0 1 1.197 2.895v.005a4.083 4.083 0 0 1-.815 2.452l2.495 2.495a.584.584 0 0 1 0 .824.58.58 0 0 1-.82.003l-.003-.003-2.495-2.494a4.097 4.097 0 0 1-2.454.816h-.006a4.078 4.078 0 0 1-2.893-1.2 4.078 4.078 0 0 1-1.198-2.895v-.005a4.078 4.078 0 0 1 1.197-2.893zm2.896-.036c-.748 0-1.5.286-2.073.86a2.92 2.92 0 0 0-.858 2.071c0 .752.285 1.502.858 2.075a2.927 2.927 0 0 0 4.139.008l.008-.008a2.927 2.927 0 0 0 .007-4.139l-.007-.007a2.916 2.916 0 0 0-2.074-.86z" fill-rule="evenodd" clip-rule="evenodd" fill="#fff"/><path d="M373.532 168.273h73.458a.705.705 0 0 1 0 1.407h-73.458a.706.706 0 0 1-.704-.704.706.706 0 0 1 .704-.703z" fill-rule="evenodd" clip-rule="evenodd" fill="#63666e"/><path d="M398.868 183.289h16.439c.488 0 .887.472.887 1.052s-.398 1.053-.887 1.053h-16.439c-.489 0-.89-.474-.89-1.053 0-.58.401-1.052.89-1.052zm0 4.631h9.311c.49 0 .889.472.889 1.053 0 .578-.398 1.052-.889 1.052h-9.311c-.489 0-.89-.474-.89-1.052 0-.581.401-1.053.89-1.053zm12.477 0h1.36c.488 0 .888.472.888 1.053 0 .578-.399 1.052-.888 1.052h-1.36c-.488 0-.886-.474-.886-1.052 0-.581.397-1.053.886-1.053zm-12.477 12.772h8.366c.488 0 .887-.474.887-1.052 0-.58-.398-1.053-.887-1.053h-8.366c-.489 0-.89.474-.89 1.053 0 .578.401 1.052.89 1.052zm0-4.631h11.559c.488 0 .886-.474.886-1.053 0-.58-.397-1.052-.886-1.052h-11.559c-.489 0-.89.472-.89 1.052 0 .579.401 1.053.89 1.053zm15.004 0h1.996c.49 0 .887-.474.887-1.053 0-.58-.396-1.052-.887-1.052h-1.996c-.488 0-.886.472-.886 1.052 0 .579.398 1.053.886 1.053z" fill-rule="evenodd" clip-rule="evenodd" fill="#938aad"/><path d="M175.097 210.126h162.928c3.918 0 7.12 3.205 7.12 7.122v105.8c0 3.916-3.202 7.12-7.12 7.12H175.097c-3.915 0-7.12-3.204-7.12-7.12v-105.8c0-3.917 3.205-7.122 7.12-7.122z" fill-rule="evenodd" clip-rule="evenodd" fill="#c1bbda"/><path d="M335.094 125.385h-68.695c-4.991 0-9.072 4.085-9.072 9.074v69.918c0 .419.239.777.625.936a.992.992 0 0 0 1.104-.22l15.46-15.46h60.579c4.989 0 9.072-4.082 9.072-9.072v-46.102c0-4.991-4.083-9.074-9.073-9.074z" fill-rule="evenodd" clip-rule="evenodd" fill="#507689"/><path d="M344.167 144.572h-86.84v59.805c0 .419.239.775.625.936a.992.992 0 0 0 1.104-.22l15.46-15.46h60.579c4.989 0 9.072-4.082 9.072-9.072v-35.989z" fill-rule="evenodd" clip-rule="evenodd" fill="#507689"/><path d="M648.541 414.414l-42.746-167.841h-8.668l42.746 167.841h8.668z" fill-rule="evenodd" clip-rule="evenodd" fill="#4f2d4e"/><path d="M605.042 265.714h-31.72a1.4 1.4 0 0 0-1.396 1.397v.002a1.4 1.4 0 0 0 1.396 1.396h31.72a1.4 1.4 0 0 0 1.398-1.396v-.002a1.4 1.4 0 0 0-1.398-1.397zm5.18 21.128h-31.719a1.4 1.4 0 0 0-1.397 1.397v.002a1.4 1.4 0 0 0 1.397 1.396h31.719c.768 0 1.397-.629 1.397-1.396v-.002c0-.769-.63-1.397-1.397-1.397zm5.176 21.126H583.68c-.769 0-1.398.63-1.398 1.398 0 .77.63 1.398 1.398 1.398h31.718c.77 0 1.398-.629 1.398-1.398 0-.768-.628-1.398-1.398-1.398zm5.179 21.128h-31.718a1.4 1.4 0 0 0-1.396 1.398 1.4 1.4 0 0 0 1.396 1.398h31.718c.77 0 1.398-.629 1.398-1.398a1.402 1.402 0 0 0-1.398-1.398zm5.179 21.128h-31.72c-.767 0-1.396.63-1.396 1.398a1.4 1.4 0 0 0 1.396 1.398h31.72a1.4 1.4 0 0 0 1.396-1.398 1.4 1.4 0 0 0-1.396-1.398zm5.178 21.128h-31.719c-.769 0-1.397.63-1.397 1.398a1.4 1.4 0 0 0 1.397 1.397h31.719c.769 0 1.399-.628 1.399-1.397s-.63-1.398-1.399-1.398zm5.178 21.127h-31.719c-.77 0-1.398.63-1.398 1.398s.628 1.397 1.398 1.397h31.719c.768 0 1.397-.63 1.397-1.397a1.402 1.402 0 0 0-1.397-1.398z" fill-rule="evenodd" clip-rule="evenodd" fill="#4f2d4e"/><path d="M612.518 414.414l-42.747-167.841h-8.665l42.745 167.841h8.667z" fill-rule="evenodd" clip-rule="evenodd" fill="#4f2d4e"/><path d="M502.048 414.414l42.746-167.841h8.666l-42.744 167.841h-8.668z" fill-rule="evenodd" clip-rule="evenodd" fill="#603460"/><path d="M545.547 265.714h31.718a1.4 1.4 0 0 1 1.398 1.397v.002a1.4 1.4 0 0 1-1.398 1.396h-31.718c-.771 0-1.4-.629-1.4-1.396v-.002a1.4 1.4 0 0 1 1.4-1.397zm-5.18 21.128h31.719a1.4 1.4 0 0 1 1.398 1.397v.002a1.4 1.4 0 0 1-1.398 1.396h-31.719a1.402 1.402 0 0 1-1.398-1.396v-.002a1.402 1.402 0 0 1 1.398-1.397zm-5.177 21.126h31.719c.768 0 1.397.63 1.397 1.398 0 .77-.63 1.398-1.397 1.398H535.19a1.4 1.4 0 0 1-1.398-1.398c0-.768.628-1.398 1.398-1.398zm-5.18 21.128h31.72c.771 0 1.398.63 1.398 1.398a1.4 1.4 0 0 1-1.398 1.398h-31.72a1.4 1.4 0 0 1-1.396-1.398 1.4 1.4 0 0 1 1.396-1.398zm-5.177 21.128h31.72c.768 0 1.397.63 1.397 1.398 0 .77-.629 1.398-1.397 1.398h-31.72a1.4 1.4 0 0 1-1.398-1.398 1.4 1.4 0 0 1 1.398-1.398zm-5.18 21.128h31.72a1.398 1.398 0 0 1 0 2.795h-31.72a1.4 1.4 0 0 1-1.397-1.397 1.402 1.402 0 0 1 1.397-1.398zm-5.176 21.127h31.719c.768 0 1.397.63 1.397 1.398s-.63 1.397-1.397 1.397h-31.719a1.4 1.4 0 0 1-1.397-1.397 1.4 1.4 0 0 1 1.397-1.398z" fill-rule="evenodd" clip-rule="evenodd" fill="#4f2d4e"/><path d="M538.071 414.414l42.745-167.841h8.666l-42.744 167.841h-8.667z" fill-rule="evenodd" clip-rule="evenodd" fill="#81577f"/><path d="M569.167 241.013h39.771a4.986 4.986 0 0 1 4.972 4.972c0 2.734-2.236 4.973-4.972 4.973h-39.771c-2.732 0-4.97-2.238-4.97-4.973 0-2.736 2.238-4.972 4.97-4.972z" fill-rule="evenodd" clip-rule="evenodd" fill="#4f2d4e"/><path d="M541.826 241.013h42.256c2.735 0 4.974 2.237 4.974 4.972 0 2.734-2.238 4.973-4.974 4.973h-42.256c-2.734 0-4.971-2.238-4.971-4.973a4.985 4.985 0 0 1 4.971-4.972z" fill-rule="evenodd" clip-rule="evenodd" fill="#9b6c96"/><path d="M644.011 412.638H124.029c-6.259 0-11.385 5.125-11.385 11.385v.001c0 6.26 5.122 11.385 11.385 11.385h38.412c3.478 0 6.325 2.847 6.325 6.325s-2.847 6.324-6.325 6.324h-14.053c-4.348 0-7.907 3.559-7.907 7.905v.002c0 4.347 3.559 7.906 7.907 7.906h470.007c4.349 0 7.907-3.559 7.907-7.906v-.002c0-4.349-3.559-7.905-7.907-7.905h-11.069c-3.477 0-6.323-2.847-6.323-6.324 0-3.479 2.846-6.325 6.323-6.325h36.685c6.263 0 11.386-5.124 11.386-11.385v-.001c-.001-6.263-5.128-11.385-11.386-11.385zm-5.93 51.233c-4.173 0-7.589-3.417-7.589-7.59v-.633c0-4.175 3.416-7.591 7.589-7.591 4.175 0 7.592 3.416 7.592 7.591v.633c0 4.175-3.417 7.59-7.592 7.59z" fill-rule="evenodd" clip-rule="evenodd" fill="#454f55"/><path d="M685.708 138.951a8.212 8.212 0 0 0-5.83-2.417 8.215 8.215 0 0 0-5.831 2.417 8.223 8.223 0 0 0-2.416 5.83 8.232 8.232 0 0 0 2.416 5.83 8.219 8.219 0 0 0 5.831 2.415 8.218 8.218 0 0 0 5.83-2.415 8.226 8.226 0 0 0 2.415-5.83 8.222 8.222 0 0 0-2.415-5.83zm-1.78-8.174a14.542 14.542 0 0 1 6.067 3.513.506.506 0 0 0 .604.072l3.831-2.213.022-.011a.945.945 0 0 1 .697-.08.933.933 0 0 1 .577.441l.017.026 2.694 4.667a.96.96 0 0 1-.347 1.3l-.025.016-3.801 2.195a.508.508 0 0 0-.24.557c.141.566.248 1.148.32 1.742a14.87 14.87 0 0 1 0 3.553 14.5 14.5 0 0 1-.32 1.742.507.507 0 0 0 .268.575l3.799 2.193c.225.13.375.342.44.578a.933.933 0 0 1-.093.721l-2.711 4.695a.937.937 0 0 1-.577.44.94.94 0 0 1-.72-.093l-.027-.014-3.806-2.197a.512.512 0 0 0-.602.072 14.565 14.565 0 0 1-6.09 3.519.51.51 0 0 0-.367.488v4.419a.952.952 0 0 1-.949.948h-5.422a.95.95 0 0 1-.947-.948v-4.419a.508.508 0 0 0-.391-.493 14.368 14.368 0 0 1-3.23-1.378 14.558 14.558 0 0 1-2.836-2.137.51.51 0 0 0-.63-.056l-3.806 2.196a.937.937 0 0 1-.719.092.94.94 0 0 1-.578-.44l-.016-.027-2.698-4.669.003-.001a.934.934 0 0 1-.093-.718.944.944 0 0 1 .437-.578l3.83-2.21a.507.507 0 0 0 .239-.559 14.632 14.632 0 0 1-.426-3.518 14.64 14.64 0 0 1 .426-3.519.503.503 0 0 0-.267-.573l-3.803-2.195a.94.94 0 0 1-.437-.577.928.928 0 0 1 .093-.719l.014-.029 2.697-4.67v.002a.935.935 0 0 1 .578-.441.946.946 0 0 1 .719.091h-.001l3.833 2.213a.503.503 0 0 0 .613-.083 14.621 14.621 0 0 1 6.077-3.509.51.51 0 0 0 .37-.486v-4.42a.95.95 0 0 1 .947-.948h5.422a.952.952 0 0 1 .949.948v4.42c0 .236.163.44.392.494zm-46.717-61.408a20.34 20.34 0 0 0-6.598-4.409 20.26 20.26 0 0 0-7.764-1.54 20.252 20.252 0 0 0-7.763 1.54 20.333 20.333 0 0 0-11.005 11.005 20.24 20.24 0 0 0-1.542 7.764c0 2.744.549 5.368 1.542 7.764a20.322 20.322 0 0 0 11.002 11.004 20.23 20.23 0 0 0 7.766 1.541c2.745 0 5.369-.547 7.764-1.54a20.372 20.372 0 0 0 6.598-4.409 20.315 20.315 0 0 0 4.407-6.596 20.26 20.26 0 0 0 1.54-7.764c0-2.744-.548-5.368-1.54-7.764a20.331 20.331 0 0 0-4.407-6.596zm-7.312-2.674a18.482 18.482 0 0 1 5.98 4.003 18.47 18.47 0 0 1 4.004 5.979 18.383 18.383 0 0 1 1.394 7.051 18.401 18.401 0 0 1-1.394 7.051 18.443 18.443 0 0 1-4.004 5.979 18.503 18.503 0 0 1-5.98 4.005 18.395 18.395 0 0 1-7.05 1.392 18.375 18.375 0 0 1-7.046-1.392 18.447 18.447 0 0 1-5.983-4.005 18.473 18.473 0 0 1-4.005-5.979 18.4 18.4 0 0 1-1.393-7.051c0-2.501.496-4.883 1.393-7.051a18.473 18.473 0 0 1 4.005-5.979 18.451 18.451 0 0 1 5.979-4.003 18.355 18.355 0 0 1 7.05-1.394c2.502 0 4.884.495 7.05 1.394zm2.247-14.944a32.983 32.983 0 0 1 7.335 3.13 33.44 33.44 0 0 1 6.481 4.885c.684.657 1.72.782 2.54.307 2.982-1.721 6.118-3.425 9.04-5.22.142-.074.289-.119.438-.135.34-.038.682.056.955.262.129.098.243.225.33.374 2.174 3.289 4.356 7.539 6.369 11.028.087.149.139.31.159.469.041.345-.052.693-.262.97-.098.13-.225.244-.374.329-2.684 1.774-6.139 3.548-8.984 5.191a2.105 2.105 0 0 0-1.031 1.448l-.184.062.206.838c.163.66.307 1.318.427 1.973a33.838 33.838 0 0 1 0 12.133c-.12.657-.264 1.316-.427 1.975a2.12 2.12 0 0 0 1.095 2.399l7.958 4.594-.003.003.942.544c.297.172.512.456.598.788.046.17.059.345.038.514a1.234 1.234 0 0 1-.159.467l-5.89 10.206-.003-.001-.477.823a1.32 1.32 0 0 1-.33.376c-.136.103-.29.178-.455.222-.171.046-.346.06-.513.039a1.271 1.271 0 0 1-.466-.159c-2.85-1.79-6.065-3.498-9.003-5.196a2.121 2.121 0 0 0-2.532.305l-.005.003a33.224 33.224 0 0 1-13.908 8.039 2.123 2.123 0 0 0-1.545 2.049l-.003 10.381c0 .341-.138.668-.381.907a1.255 1.255 0 0 1-.907.38H616.48a1.234 1.234 0 0 1-.487-.097 1.279 1.279 0 0 1-.8-1.19v-10.382c0-.493-.174-.951-.461-1.316a2.13 2.13 0 0 0-1.177-.756 33.058 33.058 0 0 1-10.724-5.373 33.832 33.832 0 0 1-3.094-2.64 2.132 2.132 0 0 0-2.647-.242l-8.887 5.132a1.264 1.264 0 0 1-.983.119 1.273 1.273 0 0 1-.787-.598c-2.111-3.682-4.255-7.348-6.369-11.029a1.28 1.28 0 0 1-.159-.469 1.372 1.372 0 0 1 .26-.97c.097-.131.222-.242.366-.328l8.993-5.191a2.122 2.122 0 0 0 1.008-1.347l.236-.047-.238-.954a33.409 33.409 0 0 1-.974-8.041 33.255 33.255 0 0 1 .974-8.039c.118-.47.07-.966-.135-1.405a2.134 2.134 0 0 0-.957-.994l-8.903-5.142a1.292 1.292 0 0 1-.593-.786 1.265 1.265 0 0 1 .121-.981c2.174-3.234 4.352-7.554 6.369-11.03.171-.297.455-.513.787-.597.169-.045.344-.06.511-.039.157.019.317.074.471.16l8.996 5.193c.423.248.899.331 1.35.27.452-.061.881-.27 1.215-.601a33.262 33.262 0 0 1 10.073-6.665 32.935 32.935 0 0 1 3.809-1.349c.462-.13.845-.406 1.114-.763.272-.363.431-.812.431-1.285l.003-10.382c0-.175.035-.34.096-.488a1.34 1.34 0 0 1 .704-.701 1.27 1.27 0 0 1 .487-.096h12.738c.342-.001.669.136.909.379.233.234.379.557.379.907v10.382c0 .496.172.954.458 1.317.299.368.711.641 1.183.752zm4.477-.394a35.236 35.236 0 0 1 10.64 7.054c.04.039.09.061.144.066a.237.237 0 0 0 .154-.029c3.024-1.745 6.055-3.486 9.075-5.241a3.092 3.092 0 0 1 1.134-.356c.4-.045.805-.015 1.194.088.396.108.775.292 1.109.548.323.246.603.555.815.926 2.193 3.549 4.274 7.396 6.369 11.026.214.37.344.769.395 1.174.053.419.024.84-.082 1.235a3.238 3.238 0 0 1-.546 1.111c-.247.321-.557.6-.928.812-2.891 1.787-6.031 3.484-8.99 5.193a.234.234 0 0 0-.102.117.236.236 0 0 0-.013.157l.205.838-.013.005c.09.406.174.821.251 1.243.133.719.242 1.427.327 2.121.169 1.421.255 2.851.256 4.282a36.694 36.694 0 0 1-.256 4.282 36.128 36.128 0 0 1-.775 4.206.23.23 0 0 0 .018.163.24.24 0 0 0 .111.12c3.303 1.767 6.658 3.841 9.925 5.727l-.118.146.102.125c.254.334.44.713.546 1.109.106.397.135.817.082 1.235a3.11 3.11 0 0 1-.396 1.172l-6.844 11.855-.127-.076a3.178 3.178 0 0 1-3.694.428c-2.995-1.589-6.078-3.508-9.034-5.215a.266.266 0 0 0-.297.04 35.153 35.153 0 0 1-14.689 8.491.234.234 0 0 0-.132.088.234.234 0 0 0-.052.152v10.381c0 .424-.086.833-.242 1.207a3.216 3.216 0 0 1-1.716 1.717 3.12 3.12 0 0 1-1.209.244h-12.74c-.424 0-.835-.087-1.209-.244a3.25 3.25 0 0 1-1.029-.688 3.206 3.206 0 0 1-.931-2.236v-10.382a.256.256 0 0 0-.049-.156.251.251 0 0 0-.141-.086l-.042-.015a35.247 35.247 0 0 1-4.003-1.421 35.451 35.451 0 0 1-3.801-1.9 35.463 35.463 0 0 1-3.576-2.368 35.817 35.817 0 0 1-3.265-2.788.228.228 0 0 0-.147-.069.251.251 0 0 0-.16.04l-8.99 5.189a3.158 3.158 0 0 1-2.401.312 3.193 3.193 0 0 1-1.91-1.446c-2.364-3.797-4.594-7.958-6.847-11.858l.122-.072a3.367 3.367 0 0 1-.055-.3 3.26 3.26 0 0 1 .083-1.232c.106-.396.289-.777.546-1.109.244-.323.556-.602.925-.814l8.992-5.191a.26.26 0 0 0 .117-.279l-.233-.951.013-.003a34.644 34.644 0 0 1-.743-5.382 35.144 35.144 0 0 1 .516-8.558c.132-.713.283-1.407.448-2.08a.241.241 0 0 0-.018-.167.258.258 0 0 0-.114-.117l-8.98-5.184a3.068 3.068 0 0 1-.923-.815 3.227 3.227 0 0 1-.545-1.109 3.233 3.233 0 0 1-.083-1.231c.051-.394.177-.782.379-1.146 2.142-3.965 4.596-7.961 6.859-11.884l.129.077a3.23 3.23 0 0 1 1.322-.724 3.233 3.233 0 0 1 1.231-.082c.408.051.805.18 1.169.388l.665.382-.002.008 8.34 4.812c.05.029.107.039.159.032a.242.242 0 0 0 .142-.071l.023-.022a34.98 34.98 0 0 1 3.257-2.773 34.87 34.87 0 0 1 7.382-4.267 35.237 35.237 0 0 1 4.028-1.431.24.24 0 0 0 .182-.239V39.295c0-.424.087-.833.244-1.208a3.199 3.199 0 0 1 1.715-1.716 3.1 3.1 0 0 1 1.209-.243h12.738c.426 0 .834.085 1.209.243a3.165 3.165 0 0 1 1.959 2.924v10.382c0 .06.022.114.052.158a.262.262 0 0 0 .14.087l.04.015c1.385.397 2.721.875 4.005 1.42z" fill-rule="evenodd" clip-rule="evenodd" fill="#dcd7eb"/><path d="M175.097 217.114h162.928c3.918 0 7.12 3.205 7.12 7.121v93.058c0 3.916-3.204 7.12-7.12 7.12H175.097c-3.915 0-7.12-3.204-7.12-7.12v-93.058c0-3.916 3.205-7.121 7.12-7.121z" fill-rule="evenodd" clip-rule="evenodd" fill="#fae3ea"/><path d="M199.87 252.224c1.281 0 2.502.504 3.407 1.41a4.806 4.806 0 0 1 1.41 3.407c0 1.279-.504 2.5-1.41 3.405l-.006.004a4.798 4.798 0 0 1-3.401 1.406 4.799 4.799 0 0 1-3.404-1.41 4.806 4.806 0 0 1-.014-6.797l.014-.014a4.794 4.794 0 0 1 3.404-1.411zm-18.395-12.377a2.13 2.13 0 0 1-3.115-2.903 29.467 29.467 0 0 1 9.8-6.916 29.394 29.394 0 0 1 11.71-2.428c4.035 0 8.011.822 11.712 2.428a29.473 29.473 0 0 1 9.798 6.916 2.13 2.13 0 1 1-3.026 2.998c-.031-.031-.06-.063-.089-.095a25.207 25.207 0 0 0-8.372-5.915 25.112 25.112 0 0 0-10.023-2.068c-3.451 0-6.853.692-10.021 2.068a25.215 25.215 0 0 0-8.374 5.915zm5.6 5.234a17.566 17.566 0 0 1 5.822-4.117 17.504 17.504 0 0 1 6.972-1.436c2.402 0 4.771.48 6.974 1.436a17.55 17.55 0 0 1 5.824 4.117 2.13 2.13 0 0 0 3.115-2.905 21.807 21.807 0 0 0-7.251-5.115c-2.736-1.189-5.678-1.799-8.661-1.799s-5.923.61-8.661 1.799a21.795 21.795 0 0 0-7.248 5.115 2.126 2.126 0 0 0 .103 3.006l.003.003a2.131 2.131 0 0 0 3.008-.104zm6.414 5.991a2.13 2.13 0 0 1-3.187-2.827l.071-.076a13.018 13.018 0 0 1 9.498-4.13 13.015 13.015 0 0 1 9.5 4.13c.803.859.751 2.21-.107 3.01a2.13 2.13 0 0 1-3.008-.107 8.74 8.74 0 0 0-2.903-2.053 8.74 8.74 0 0 0-3.482-.714 8.725 8.725 0 0 0-3.479.714 8.74 8.74 0 0 0-2.903 2.053z" fill-rule="evenodd" clip-rule="evenodd" fill="#9b6c96"/><path d="M271.424 227.26h17.509c.92 0 1.67.748 1.67 1.667a1.67 1.67 0 0 1-1.67 1.666h-17.509a1.67 1.67 0 0 1-1.668-1.666 1.67 1.67 0 0 1 1.668-1.667zm0 35.244h23.068c.918 0 1.668-.749 1.668-1.667a1.67 1.67 0 0 0-1.668-1.667h-23.068a1.67 1.67 0 0 0-1.668 1.667 1.67 1.67 0 0 0 1.668 1.667zm0-7.337h10.392a1.67 1.67 0 0 0 0-3.337h-10.392c-.918 0-1.668.75-1.668 1.669a1.67 1.67 0 0 0 1.668 1.668zm28.211-15.009h3.752a1.67 1.67 0 0 0 1.667-1.667 1.67 1.67 0 0 0-1.667-1.667h-3.752a1.67 1.67 0 0 0-1.667 1.667c0 .918.75 1.667 1.667 1.667zm-28.211 0h21.735c.917 0 1.667-.749 1.667-1.667a1.67 1.67 0 0 0-1.667-1.667h-21.735a1.67 1.67 0 0 0-1.668 1.667 1.67 1.67 0 0 0 1.668 1.667zm0 7.338h15.731a1.67 1.67 0 0 0 1.668-1.665c0-.92-.749-1.67-1.668-1.67h-15.731c-.918 0-1.668.75-1.668 1.67.002.92.748 1.664 1.668 1.665zm23.458-20.236h2.558a1.67 1.67 0 0 1 1.667 1.667 1.67 1.67 0 0 1-1.667 1.666h-2.558a1.67 1.67 0 0 1-1.669-1.666c0-.919.75-1.667 1.669-1.667zm-64.503 35.244h17.512a1.67 1.67 0 0 0 1.667-1.667 1.67 1.67 0 0 0-1.667-1.667h-17.512a1.67 1.67 0 0 0-1.667 1.667c0 .918.75 1.667 1.667 1.667zm0-35.244h23.071a1.67 1.67 0 0 1 1.667 1.667 1.67 1.67 0 0 1-1.667 1.668h-23.071c-.917 0-1.667-.75-1.667-1.668 0-.919.75-1.667 1.667-1.667zm0 7.338h10.395c.918 0 1.667.75 1.667 1.667a1.67 1.67 0 0 1-1.667 1.668h-10.395c-.917 0-1.667-.75-1.667-1.668 0-.917.75-1.667 1.667-1.667zm28.212 15.009h3.754a1.67 1.67 0 0 1 1.667 1.668 1.67 1.67 0 0 1-1.667 1.667h-3.754c-.918 0-1.667-.75-1.667-1.667 0-.92.748-1.668 1.667-1.668zm-28.212 0h21.735a1.67 1.67 0 0 1 1.668 1.668c0 .917-.749 1.667-1.668 1.667h-21.735c-.917 0-1.667-.75-1.667-1.667 0-.92.75-1.668 1.667-1.668zm0-7.336h15.732a1.67 1.67 0 0 1 1.667 1.665c0 .918-.749 1.668-1.667 1.668h-15.732c-.917 0-1.667-.75-1.667-1.668 0-.917.75-1.665 1.667-1.665zm23.459 20.233h2.559a1.67 1.67 0 0 0 1.667-1.667 1.67 1.67 0 0 0-1.667-1.667h-2.559a1.67 1.67 0 0 0-1.667 1.667 1.67 1.67 0 0 0 1.667 1.667z" fill-rule="evenodd" clip-rule="evenodd" fill="#ed806a"/><path d="M182.236 271.991h35.27a3.958 3.958 0 0 1 3.945 3.946v33.542a3.957 3.957 0 0 1-3.945 3.947h-35.27a3.957 3.957 0 0 1-3.945-3.947v-33.542a3.955 3.955 0 0 1 3.945-3.946z" fill-rule="evenodd" clip-rule="evenodd" fill="#fff"/><path d="M199.87 309.384c9.185 0 16.677-7.492 16.677-16.677 0-9.186-7.492-16.679-16.677-16.679-9.184 0-16.677 7.492-16.677 16.679 0 9.185 7.492 16.677 16.677 16.677z" fill-rule="evenodd" clip-rule="evenodd" fill="#bfd2db"/><path d="M208.496 303.639a13.87 13.87 0 0 1-8.626 2.993 13.875 13.875 0 0 1-8.626-2.993c.151-4.616 3.973-8.348 8.626-8.348 4.653.001 8.475 3.732 8.626 8.348zm-8.626-22.8a6.197 6.197 0 1 1 0 12.394 6.197 6.197 0 0 1 0-12.394z" fill-rule="evenodd" clip-rule="evenodd" fill="#fff"/><path d="M230.379 310.331h42.67a1.67 1.67 0 0 0 1.667-1.667 1.67 1.67 0 0 0-1.667-1.669h-42.67c-.915 0-1.667.75-1.667 1.669 0 .918.75 1.667 1.667 1.667zm0-35.245h48.229a1.67 1.67 0 0 1 1.667 1.667 1.67 1.67 0 0 1-1.667 1.666h-48.229a1.671 1.671 0 0 1-1.667-1.666c0-.919.75-1.667 1.667-1.667zm0 7.337h35.553c.918 0 1.667.751 1.667 1.668 0 .918-.749 1.668-1.667 1.668h-35.553c-.915 0-1.667-.75-1.667-1.668 0-.917.75-1.668 1.667-1.668zm53.37 15.008h3.754c.917 0 1.667.75 1.667 1.669a1.67 1.67 0 0 1-1.667 1.666h-3.754a1.67 1.67 0 0 1-1.667-1.666c0-.919.749-1.669 1.667-1.669zm-53.37 0h46.893c.919 0 1.667.75 1.667 1.669 0 .918-.748 1.666-1.667 1.666h-46.893a1.671 1.671 0 0 1-1.667-1.666c0-.919.75-1.669 1.667-1.669zm0-7.336h40.891a1.67 1.67 0 0 1 1.667 1.665c0 .92-.749 1.67-1.667 1.67h-40.891c-.915 0-1.667-.75-1.667-1.67 0-.917.75-1.665 1.667-1.665zm48.617 20.236h2.558a1.67 1.67 0 0 0 1.667-1.667c0-.919-.75-1.669-1.667-1.669h-2.558c-.918 0-1.668.75-1.668 1.669 0 .918.75 1.667 1.668 1.667z" fill-rule="evenodd" clip-rule="evenodd" fill="#dd87a2"/><path d="M606.882 181.658c11.915 0 21.574 9.658 21.574 21.573 0 11.916-9.659 21.574-21.574 21.574h-18.854c-1.471 5.623-5.896 7.054-10.016 7.054h-30.81c-8.39 0-10.371-7.054-10.371-7.054h-18.469a8.9 8.9 0 0 1-8.902-8.9v-.002a8.9 8.9 0 0 1 8.222-8.876c-.03-.429-.047-.861-.047-1.297 0-9.784 7.931-17.714 17.713-17.714 2.572 0 5.015.549 7.219 1.535 2.143-14.939 14.991-26.424 30.525-26.424 12.901 0 23.952 7.926 28.553 19.172 1.675-.42 3.43-.641 5.237-.641z" fill-rule="evenodd" clip-rule="evenodd" fill="#ccc5e1"/><path d="M607.341 177.676c11.915 0 21.575 9.658 21.575 21.572 0 11.916-9.66 21.575-21.575 21.575h-88.519a8.9 8.9 0 0 1-8.901-8.901v-.001a8.9 8.9 0 0 1 8.221-8.876c-.028-.429-.047-.86-.047-1.297 0-9.783 7.931-17.714 17.715-17.714 2.57 0 5.015.549 7.218 1.535 2.143-14.939 14.99-26.423 30.524-26.423 12.903 0 23.952 7.926 28.553 19.172a21.546 21.546 0 0 1 5.236-.642z" fill-rule="evenodd" clip-rule="evenodd" fill="#fff"/><path d="M586.686 216.438v-17.767h5.994l-13.781-19.256h-2.308L560.5 198.671h5.997v.152c0 21.025.609 22-15.087 22h34.769c.327-1.246.507-2.698.507-4.385z" fill-rule="evenodd" clip-rule="evenodd" fill="#deeaf7"/><path d="M588.994 216.438v-17.767h5.996l-16.091-19.256-16.091 19.256h5.995v.152c0 21.025.61 22-15.084 22h-16.43s1.982 7.054 10.37 7.054h30.81c4.12 0 8.547-1.431 10.017-7.054.329-1.246.508-2.698.508-4.385z" fill-rule="evenodd" clip-rule="evenodd" fill="#e74d91"/><path d="M419.464 390.231h3.988c.958 0 1.742-.785 1.742-1.745v-3.987c0-.958-.784-1.743-1.742-1.743h-3.988c-.961 0-1.744.785-1.744 1.743v3.987c0 .96.783 1.745 1.744 1.745z" fill-rule="evenodd" clip-rule="evenodd" fill="#507689"/><path d="M433.292 390.231h3.988a1.75 1.75 0 0 0 1.744-1.745v-3.987a1.75 1.75 0 0 0-1.744-1.743h-3.988c-.96 0-1.744.785-1.744 1.743v3.987c0 .96.784 1.745 1.744 1.745z" fill-rule="evenodd" clip-rule="evenodd" fill="#fff"/><path d="M447.12 390.231h3.988c.961 0 1.744-.785 1.744-1.745v-3.987c0-.958-.783-1.743-1.744-1.743h-3.988a1.75 1.75 0 0 0-1.744 1.743v3.987c0 .96.785 1.745 1.744 1.745z" fill-rule="evenodd" clip-rule="evenodd" fill="#507689"/><path d="M460.948 390.231h3.989c.96 0 1.743-.785 1.743-1.745v-3.987c0-.958-.783-1.743-1.743-1.743h-3.989a1.75 1.75 0 0 0-1.743 1.743v3.987c0 .96.786 1.745 1.743 1.745z" fill-rule="evenodd" clip-rule="evenodd" fill="#fff"/><path d="M474.78 390.231h3.985c.96 0 1.744-.785 1.744-1.745v-3.987c0-.958-.784-1.743-1.744-1.743h-3.985c-.96 0-1.744.785-1.744 1.743v3.987c0 .96.784 1.745 1.744 1.745z" fill-rule="evenodd" clip-rule="evenodd" fill="#507689"/><path d="M447.621 375.154h3.988c.961 0 1.744-.784 1.744-1.744v-3.988c0-.959-.783-1.742-1.744-1.742h-3.988c-.96 0-1.744.783-1.744 1.742v3.988c0 .96.784 1.744 1.744 1.744z" fill-rule="evenodd" clip-rule="evenodd" fill="#fff"/><path d="M461.449 375.154h3.989c.96 0 1.743-.784 1.743-1.744v-3.988c0-.959-.783-1.742-1.743-1.742h-3.989c-.958 0-1.743.783-1.743 1.742v3.988c0 .96.785 1.744 1.743 1.744z" fill-rule="evenodd" clip-rule="evenodd" fill="#507689"/><path d="M475.278 375.154h3.988c.96 0 1.744-.784 1.744-1.744v-3.988c0-.959-.784-1.742-1.744-1.742h-3.988c-.959 0-1.742.783-1.742 1.742v3.988c0 .96.783 1.744 1.742 1.744z" fill-rule="evenodd" clip-rule="evenodd" fill="#fff"/><path d="M464.539 82.308a.921.921 0 0 1 1.843 0v4.14a.922.922 0 0 1-1.843 0v-4.14zm-6.273 3.362a.92.92 0 1 1 1.302-1.302l2.928 2.927a.921.921 0 0 1-1.303 1.302l-2.927-2.927zm-2.061 6.813a.92.92 0 0 1 0-1.84h4.142a.92.92 0 0 1 0 1.84h-4.142zm3.362 6.275a.923.923 0 0 1-1.302 0 .923.923 0 0 1 0-1.302l2.927-2.929a.923.923 0 0 1 1.303 0c.36.357.361.939.004 1.298l-.004.004-2.928 2.929zm6.815 2.058a.921.921 0 0 1-1.843 0v-4.139a.923.923 0 0 1 1.843 0v4.139zm6.274-3.36a.92.92 0 0 1-1.303 1.302l-2.929-2.929a.923.923 0 0 1 0-1.302.924.924 0 0 1 1.304 0l2.928 2.929zm2.06-6.813a.92.92 0 0 1 .004 1.84H470.573a.92.92 0 0 1 0-1.84h4.143zm-3.363-6.275a.92.92 0 1 1 1.303 1.302l-2.928 2.927a.922.922 0 0 1-1.304-1.302l2.929-2.927zM171.23 92.804a.92.92 0 0 1 1.84 0v4.141a.92.92 0 0 1-1.84.004v-4.145zm-6.275 3.361a.92.92 0 1 1 1.302-1.302l2.929 2.929a.922.922 0 0 1-1.302 1.302l-2.929-2.929zm-2.059 6.814a.924.924 0 0 1-.922-.92c0-.509.415-.922.922-.922h4.14a.92.92 0 1 1 0 1.842h-4.14zm3.361 6.274a.92.92 0 1 1-1.302-1.302l2.929-2.927a.922.922 0 0 1 1.302 1.302l-2.929 2.927zm6.813 2.06a.92.92 0 0 1-1.84.004v-4.145a.92.92 0 0 1 1.84-.004v4.145zm6.275-3.362a.92.92 0 0 1-1.286 1.316l-.014-.014-2.929-2.927a.92.92 0 1 1 1.3-1.302l2.929 2.927zm2.06-6.813a.92.92 0 1 1 0 1.842h-4.141a.92.92 0 1 1 0-1.842h4.141zm-3.36-6.275a.921.921 0 0 1 1.3 1.302l-2.929 2.929a.92.92 0 1 1-1.3-1.302l2.929-2.929zm477.582 226.821a.922.922 0 0 1 1.842 0v4.142a.92.92 0 1 1-1.842 0v-4.142zm-6.273 3.362a.92.92 0 0 1 1.285-1.317l.015.015 2.929 2.927a.923.923 0 0 1-1.302 1.303l-2.927-2.928zm-2.063 6.813a.921.921 0 0 1 0-1.842h4.143a.92.92 0 0 1 0 1.842h-4.143zm3.362 6.275a.921.921 0 0 1-1.3-1.302l2.927-2.929a.922.922 0 0 1 1.302 1.302l-2.929 2.929zm6.816 2.058a.922.922 0 0 1-1.842 0v-4.139a.92.92 0 1 1 1.842 0v4.139zm6.273-3.36a.922.922 0 0 1-1.303 1.302l-2.927-2.929a.922.922 0 0 1 1.302-1.302l2.928 2.929zm2.06-6.813a.921.921 0 1 1 0 1.841h-4.141a.921.921 0 1 1 0-1.841h4.141zm-3.362-6.275a.92.92 0 1 1 1.302 1.302l-2.928 2.928a.92.92 0 0 1-1.302-1.303l2.928-2.927zM104.336 277.66c-1.549-1.55-3.689-2.507-6.053-2.507s-4.502.957-6.052 2.507a8.535 8.535 0 0 0-2.506 6.052 8.534 8.534 0 0 0 2.506 6.052c1.55 1.55 3.688 2.508 6.052 2.508s4.504-.958 6.053-2.508a8.536 8.536 0 0 0 2.507-6.052 8.54 8.54 0 0 0-2.507-6.052zm-1.85-8.483c1.185.342 2.311.825 3.354 1.428a15.191 15.191 0 0 1 2.943 2.219c.173.166.43.191.626.076l3.979-2.297.021-.013a.986.986 0 0 1 .724-.083.988.988 0 0 1 .601.457l.016.027 2.797 4.847a.99.99 0 0 1-.359 1.349l-.029.016-3.943 2.277a.525.525 0 0 0-.247.581h-.002c.296 1.195.445 2.421.444 3.652a15.146 15.146 0 0 1-.444 3.654c-.06.242.06.489.278.596l3.944 2.276c.226.132.39.348.456.601a.988.988 0 0 1-.097.748l-2.813 4.875v-.001a.979.979 0 0 1-.601.457.975.975 0 0 1-.745-.096l-.03-.017-3.95-2.28a.526.526 0 0 0-.624.077 15.044 15.044 0 0 1-6.32 3.652.53.53 0 0 0-.382.508v4.588a.971.971 0 0 1-.289.693.98.98 0 0 1-.693.29H95.47a.986.986 0 0 1-.984-.983v-4.59a.526.526 0 0 0-.403-.511 14.987 14.987 0 0 1-3.356-1.429 15.186 15.186 0 0 1-2.943-2.218.525.525 0 0 0-.652-.061l-3.95 2.281a.982.982 0 0 1-.748.095.984.984 0 0 1-.599-.457l-.018-.027-2.797-4.848a.99.99 0 0 1 .36-1.348l3.973-2.293a.524.524 0 0 0 .249-.579H83.6c-.147-.596-.259-1.2-.334-1.809a15.59 15.59 0 0 1 0-3.689c.075-.609.187-1.213.334-1.808a.53.53 0 0 0-.279-.598l-3.944-2.276a.998.998 0 0 1-.456-.6.986.986 0 0 1 .096-.746l.016-.03 2.797-4.847h.001a.995.995 0 0 1 1.347-.362v.001l3.976 2.297c.212.123.475.08.639-.087a15.206 15.206 0 0 1 2.932-2.208 14.951 14.951 0 0 1 3.376-1.434.526.526 0 0 0 .382-.506v-4.588a.983.983 0 0 1 .982-.984h5.633c.27 0 .515.111.693.289.18.179.289.426.289.695v4.588a.53.53 0 0 0 .406.513z" fill-rule="evenodd" clip-rule="evenodd" fill="#507689"/><path d="M142.343 173.152a3.46 3.46 0 0 0 3.452-3.454 3.459 3.459 0 0 0-3.452-3.452 3.46 3.46 0 0 0-3.454 3.452 3.46 3.46 0 0 0 3.454 3.454zm266.369-78.429a3.46 3.46 0 0 0 3.452-3.454 3.461 3.461 0 0 0-3.452-3.454 3.46 3.46 0 0 0-3.452 3.454 3.459 3.459 0 0 0 3.452 3.454zm108.52 184.483a3.459 3.459 0 0 0 3.452-3.452 3.46 3.46 0 0 0-3.452-3.454 3.46 3.46 0 0 0-3.453 3.454 3.46 3.46 0 0 0 3.453 3.452zm139.104 86.817a3.46 3.46 0 0 0 3.454-3.453 3.46 3.46 0 0 0-3.454-3.452 3.459 3.459 0 0 0-3.452 3.452 3.46 3.46 0 0 0 3.452 3.453zm-433.097 36.501a3.458 3.458 0 0 0 3.452-3.452 3.46 3.46 0 0 0-3.452-3.453 3.46 3.46 0 0 0-3.453 3.453 3.46 3.46 0 0 0 3.453 3.452zm145.593-294.673a.922.922 0 0 1 1.842 0v4.141a.92.92 0 1 1-1.842 0v-4.141zm-6.273 3.362a.92.92 0 1 1 1.302-1.302l2.926 2.927a.92.92 0 1 1-1.3 1.303l-.001-.001-2.927-2.927zm-2.06 6.813a.924.924 0 0 1-.922-.92c0-.509.414-.92.922-.92h4.141a.92.92 0 0 1 0 1.84h-4.141zm3.362 6.276a.92.92 0 1 1-1.302-1.302l2.927-2.929a.92.92 0 0 1 1.3-.001l.001.001a.922.922 0 0 1 0 1.302l-2.926 2.929zm6.813 2.058a.92.92 0 1 1-1.842 0v-4.14a.922.922 0 0 1 1.842 0v4.14zm6.273-3.361a.922.922 0 0 1 0 1.302.917.917 0 0 1-1.297.003l-.003-.003-2.929-2.929a.922.922 0 0 1 1.302-1.302l2.927 2.929zm2.062-6.812a.92.92 0 0 1 .004 1.84H374.866a.92.92 0 0 1 0-1.84h4.143zm-3.362-6.276a.92.92 0 0 1 1.315 1.287l-.015.015-2.927 2.927a.92.92 0 1 1-1.302-1.302l2.929-2.927zm150.959 38.576a3.459 3.459 0 0 0 3.452-3.452 3.46 3.46 0 0 0-3.452-3.454 3.46 3.46 0 0 0-3.453 3.454 3.46 3.46 0 0 0 3.453 3.452z" fill-rule="evenodd" clip-rule="evenodd" fill="#fff"/><path d="M329.133 121.299h-68.695c-4.991 0-9.072 4.085-9.072 9.074v69.918c0 .419.239.775.626.936a.992.992 0 0 0 1.103-.22l15.459-15.458h60.58c4.991 0 9.072-4.084 9.072-9.074v-46.102c-.001-4.991-4.085-9.074-9.073-9.074z" fill-rule="evenodd" clip-rule="evenodd" fill="#e74d91"/><path d="M309.951 137.245l.267.266-13.459 13.46-8.86-8.862a10.046 10.046 0 0 0-2.473-10.15 10.042 10.042 0 0 0-9.379-2.682l2.664 2.664 2.168 2.167-.793 2.961-.793 2.962-2.964.793-2.961.795-2.168-2.17-2.664-2.662a10.048 10.048 0 0 0 12.833 11.85l6.503 6.504-13.004 13.003a2.879 2.879 0 0 0 0 4.059l3.455 3.454a2.879 2.879 0 0 0 4.059 0l13.003-13.005 13.148 13.149a3.116 3.116 0 0 0 4.393 0l2.139-2.139a3.114 3.114 0 0 0 0-4.392l-15.508-15.508 13.459-13.458.267.267c.344.344.962.398 1.373.122l6.292-4.234c.411-.278.466-.787.122-1.13l-2.052-2.052-1.773-1.771-2.052-2.052c-.342-.343-.851-.289-1.127.122l-4.236 6.293c-.278.414-.223 1.032.121 1.376z" fill-rule="evenodd" clip-rule="evenodd" fill="#fff"/></svg>