<svg version="1" xmlns="http://www.w3.org/2000/svg" viewBox="0 0 750 500"><path d="M547.025 31.805c45.763 0 83.204 37.442 83.204 83.206s-37.441 83.206-83.204 83.206c-9.186 0-16.7 7.515-16.7 16.7 0 9.183 7.514 16.697 16.7 16.697h62.362c22.325 0 40.591 18.267 40.591 40.592s-18.266 40.591-40.591 40.591c-19.308 0-35.105 15.798-35.105 35.105 0 35.228-28.824 64.051-64.051 64.051H226.12c-45.764 0-83.205-37.442-83.205-83.206 0-45.763 39.168-78.747 84.931-78.747l6.933-1.118c9.184 0 9.39-9.804 9.39-18.988l-1.35-1.052c0-9.183-7.515-16.697-16.699-16.697h-43.539c-22.325 0-40.591-18.267-40.591-40.592 0-22.299 18.224-40.55 40.515-40.591h39.608c19.308 0 35.105-15.797 35.105-35.105 0-35.228 28.822-64.051 64.05-64.051l225.757-.001z" fill-rule="evenodd" clip-rule="evenodd" fill="#bfd2db"/><path d="M620.242 312.167a40.297 40.297 0 0 1-10.593 1.415c-19.308 0-35.105 15.797-35.105 35.104v.001c0 35.228-28.824 64.049-64.051 64.049H226.382c-45.763 0-83.205-37.441-83.205-83.206 0-45.763 37.441-83.206 83.205-83.206 9.184 0 16.698-7.515 16.698-16.698 0-.626-.036-1.244-.104-1.853l5.739-.021-.005-22.759c0-.471.204-.877.581-1.158 1.012-.753 1.518-.864 2.222-.864.011-.614.089-1.218.442-1.706.569-.787 1.494-.945 2.398-1 1.219-.075 2.507-.03 3.732-.026.025 0 .051 0 .076.002-.014-.968-.041-1.963.068-2.924a1.438 1.438 0 0 1 1.434-1.28h8.789v-1.224c-.006-3.386 0-6.769-.002-10.155 0-.792.641-1.438 1.433-1.444l19.397-.147a1.444 1.444 0 0 1 1.453 1.427c.017 1.346-.041 2.715-.084 4.062-.059 1.844-.124 68.97-.163 70.815-.014.635-.026 1.27-.034 1.908l11.991.027c.112 0 .223.013.327.037.075-2.882.082-5.773.075-8.652-.008-3.694-.054-7.39-.116-11.083-.033-1.977-.104-3.975-.104-5.951 0-6.239-.031-12.481-.05-18.722-.032-11.185-.06-22.37-.076-33.554-.017-11.711-.027-86.435.015-98.147.015-4.039.034-8.082.087-12.122.016-1.254.034-2.507.069-3.76.017-.631.02-1.347.102-1.972a1.433 1.433 0 0 1 1.398-1.257l3.876-.086-.031-7.928a1.328 1.328 0 0 1 .045-.365c.127-.498.387-.936.781-1.27.579-.489 1.231-.605 1.946-.739.11-.02.228-.041.347-.07l-.122-2.561c-.019-.41.115-.767.398-1.065a1.395 1.395 0 0 1 1.045-.446h38.103c.791 0 1.436.64 1.443 1.431l.021 2.5 2.145.696c.598.195.99.727.997 1.356l.101 8.436 3.904-.007c.397-.001.74.141 1.022.423.282.281.423.623.423 1.02l-.011 200.656 7.873.253a1.442 1.442 0 0 1 1.396 1.415c.027 1.517-.067 3.006-.117 4.518-.036 1.067-.048 2.206.197 3.251.124.529.314 1.025.58 1.498.038.066.075.14.113.207l.168-2.767a1.442 1.442 0 0 1 1.441-1.356h9.747c.298 0 .575.09.806.245a59.875 59.875 0 0 1 .078-3.62 1.444 1.444 0 0 1 1.444-1.364l10.086.02a1.447 1.447 0 0 1 1.441 1.428l.089 7.99.606.001.18-3.483c.04-.761.663-1.36 1.427-1.369l7.149-.075.079-11.23a1.444 1.444 0 0 1 1.429-1.432l3.651-.129c.4-.004.746.136 1.03.417.284.282.427.625.427 1.025l.013 11.3 9.036.019.041-74.336c0-.082.006-.153.02-.234.125-.765.32-1.492.991-1.966.23-.162.463-.245.696-.331l.682-5.803a1.43 1.43 0 0 1 1.308-1.269l2.301-.204.161-14.642c.005-.439.185-.816.522-1.096.545-.45 1.065-.784 1.759-.952a3.53 3.53 0 0 1 .2-.046l.098-11.495a1.444 1.444 0 0 1 1.451-1.431l11.411.075a1.442 1.442 0 0 1 1.431 1.352c.129 2.039.089 4.062.071 6.099.246-.431.704-.72 1.231-.729l10.646-.178a1.44 1.44 0 0 1 1.461 1.293c.084.82.073 1.683.078 2.509.004.559-.024 1.984.14 2.484.026.078.068.205.114.308l.091.04c.724.356 1.007 1.019 1.119 1.777.142.952.115 2.086.104 3.047-.033 2.954-.136 5.911-.16 8.864-.004.432-.024 2.097.128 2.721.183.012.427.004.547.001.615-.013 1.219-.036 1.835-.021a1.446 1.446 0 0 1 1.411 1.448l-.019 5.77c.088.016.176.03.268.039.553.068.987.091 1.444.484.533.453.649 1.062.665 1.721.015.629-.008 1.268-.008 1.897l.002 85.487 10.714-.012.116-109.377c0-.794.649-1.442 1.443-1.441h1.294l.071-5.892a1.442 1.442 0 0 1 1.396-1.424l2.596-.086.001-28.109c0-.777.613-1.414 1.389-1.442l2.623-.099.013-10.406c0-.493.226-.916.633-1.192.989-.671 1.362-.797 1.917-.798l.065-11.228a1.447 1.447 0 0 1 1.444-1.435h21.351c.403 0 .748.146 1.029.433.282.288.422.637.413 1.038-.058 2.918-.169 5.838-.22 8.755-.007.413-.045 1.791.04 2.515l.073-.005c.378-.018.749-.039 1.128-.037a1.446 1.446 0 0 1 1.435 1.437l.045 10.81 2.498.112a1.442 1.442 0 0 1 1.379 1.435l.13 28.131 2.398.077a1.44 1.44 0 0 1 1.396 1.384c.06 1.52.085 3.033.102 4.553.004.273-.008.981.045 1.353.091.05.198.102.291.148l1.565.529c.595.202.979.738.98 1.366l.009 16.027c-10.224 5.931-17.139 17.003-17.139 29.612 0 18.813 15.391 34.204 34.204 34.204h.001c34.964-.003 64.924 22.471 76.162 53.682z" fill-rule="evenodd" clip-rule="evenodd" fill="#507689"/><path d="M476.152 412.736H264.834a24.337 24.337 0 0 1-2.191-10.122c0-13.494 10.94-24.434 24.434-24.434 7.078 0 13.453 3.012 17.914 7.821a19.246 19.246 0 0 1 10.015-3.92c3.51-13.128 14.544-23.18 28.198-25.254a39.764 39.764 0 0 1-.091-2.684c0-21.576 17.492-39.066 39.067-39.066 21.576 0 39.067 17.49 39.067 39.066 0 .265-.004.532-.008.796 7.914.973 14.518 6.185 17.472 13.294a34.764 34.764 0 0 1 4.256-.261c19.151 0 34.677 15.526 34.677 34.677a34.733 34.733 0 0 1-1.492 10.087z" fill-rule="evenodd" clip-rule="evenodd" fill="#365460"/><path d="M565.664 140.227c10.151 1.612 24.92 1.078 40.785-9.08 22.482-14.395-18.595-24.157-53.911-20.072l9.635 24.255 3.491 4.897z" fill-rule="evenodd" clip-rule="evenodd" fill="#0f1734"/><g fill-rule="evenodd" clip-rule="evenodd"><path d="M605.233 110.763c-8.017 4.454-27.989 12.294-47.661 21.061l-19.665 2.335-.659-11.837c17.722-16.855 39.76-33.11 57.046-39.83 30.326-11.787 39.073 12.643 10.939 28.271z" fill="#1c2b59"/><path d="M537.874 133.574c29.061-27.482 74.772-43.968 74.939-44.028a.578.578 0 0 1 .765.394.691.691 0 0 1-.419.826c-.164.059-45.142 16.283-73.969 43.239l-1.282.153-.034-.584z" fill="#bfd2db"/></g><g fill-rule="evenodd" clip-rule="evenodd"><path d="M575.631 58.373c-5.363 7.958-15.234 27.344-26.174 47.22.478 9.312 4.181 18.099 10.227 24.933 17.938-16.864 35.012-37.131 43.578-54.273 16.767-33.554-7.216-48.173-27.631-17.88z" fill="#e63680"/><path d="M553.711 121.685c26.597-29.343 44.955-68.29 45.033-68.452.17-.362.04-.797-.295-.97-.334-.173-.746-.018-.917.345-.077.161-18.226 38.656-44.457 67.745.205.448.416.893.636 1.332z" fill="#e65d9b"/></g><g fill-rule="evenodd" clip-rule="evenodd"><path d="M576.472 62.75c-2.359 8.862-10.579 28.682-17.923 48.927l-11.97 15.777-8.98-7.741c.169-24.459 3.765-51.605 10.927-68.713 12.568-30.012 36.224-19.35 27.946 11.75z" fill="#e65d9b"/><path d="M546.136 127.071c.388-39.996 20.25-84.342 20.322-84.505a.58.58 0 0 1 .816-.276.69.69 0 0 1 .304.874c-.071.161-19.614 43.799-20.218 83.262l-.78 1.029-.444-.384z" fill="#e63680"/></g><path d="M629.217 377.705c-6.798 3.785-20.573 9.554-36.403 16.315h-47.322l-.112-1.977c21.839-20.811 48.999-40.887 70.311-49.194 37.388-14.574 48.206 15.546 13.526 34.856z" fill-rule="evenodd" clip-rule="evenodd" fill="#0f1734"/><path d="M560.192 394.019c34.816-26.739 78.167-42.429 78.347-42.495a.716.716 0 0 1 .945.485.851.851 0 0 1-.515 1.019c-.176.065-42.02 15.208-76.292 40.99h-2.485z" fill-rule="evenodd" clip-rule="evenodd" fill="#bfd2db"/><path d="M592.743 389.566c7.771-6.53 15.752-14.966 21.101-25.1 13.797-26.146 18.085-34.384 24.81-36.591 5.807-1.906-44.415-23.539-91.905 27.241 1.657 11.645 8.043 24.139 24.16 34.451h21.834z" fill-rule="evenodd" clip-rule="evenodd" fill="#e63680"/><path d="M632.017 323.757c-27.309 9.998-54.583 30.876-76.892 51.541.39.523.796 1.044 1.216 1.563 22.858-21.195 50.937-42.594 78.819-52.059a34.18 34.18 0 0 0-3.143-1.045z" fill-rule="evenodd" clip-rule="evenodd" fill="#a0236a"/><path d="M580.914 273.415c-7.628 8.423-21.134 27.144-36.617 48.029-.001.006-15.441 27.641-.541 51.949 29.044-20.457 57.461-45.842 73.202-68.539 31.065-44.79-.405-70.784-36.044-31.439z" fill-rule="evenodd" clip-rule="evenodd" fill="#e65d9b"/><path d="M538.048 358.467c43.475-36.609 77.034-87.445 77.176-87.658.324-.487.225-1.139-.22-1.455-.445-.318-1.069-.181-1.392.306-.141.211-33.159 50.223-75.921 86.517.1.76.216 1.523.357 2.29z" fill-rule="evenodd" clip-rule="evenodd" fill="#e63680"/><path d="M144.181 436.689h50.038c4.149 0 7.545 3.395 7.545 7.545s-3.396 7.544-7.545 7.544h-11.322c-3.292 0-5.99 2.694-5.99 5.988 0 3.294 2.696 5.988 5.99 5.988h404.035c3.294 0 5.988-2.695 5.988-5.988 0-3.294-2.697-5.988-5.988-5.988h-10.805c-4.149 0-7.545-3.394-7.545-7.544 0-4.149 3.395-7.545 7.545-7.545h59.583c6.587 0 11.976-5.39 11.976-11.977 0-6.586-5.391-11.976-11.976-11.976H144.18c-6.583 0-11.975 5.39-11.975 11.976.001 6.587 5.39 11.977 11.976 11.977zm22.534 27.066a5.99 5.99 0 1 1 0-11.98 5.99 5.99 0 0 1 0 11.98z" fill-rule="evenodd" clip-rule="evenodd" fill="#454f55"/><g fill-rule="evenodd" clip-rule="evenodd"><path fill="#b3b4d6" d="M332.185 69.376l3.714 17.005 37.292-32.729-39.908 11.652z"/><path d="M335.899 86.381L350.28 73.76c.138-1.411.566-3.069.566-3.069l-12.372 3.901-2.575 11.789z" fill="#cccbe2"/><path fill="#fff" d="M373.191 53.652L321.367 65.56l10.818 3.816zM373.191 53.652l-22.135 32.199-12.582-11.259z"/></g><path d="M332.659 88.442a.74.74 0 1 0-.717-1.298l-.508.283-.793.458a.74.74 0 1 0 .742 1.282c.423-.245.848-.485 1.276-.725zm59.023 34.575c.764-.436.257-1.634-.619-1.34a.739.739 0 0 0-.115.052l-1.278.716a.74.74 0 1 0 .704 1.305c.439-.239.873-.488 1.308-.733zm-7.991 4.063c.875-.408.327-1.727-.601-1.355-.447.2-.897.395-1.347.59-.786.315-.478 1.591.464 1.402l.116-.038c.457-.197.914-.395 1.368-.599zm-8.364 3.228a.742.742 0 1 0-.456-1.41c-.463.153-.931.298-1.397.439a.74.74 0 1 0 .423 1.421c.477-.143.956-.294 1.43-.45zm-8.686 2.278c.917-.172.727-1.583-.247-1.461-.49.084-.985.189-1.477.278a.741.741 0 0 0 .257 1.461c.489-.088.979-.182 1.467-.278zm-8.9 1.202c.935-.058.916-1.48-.061-1.48-.498.021-.997.063-1.495.085-.946.059-.94 1.423-.004 1.481.504 0 1.055-.052 1.56-.086zm-8.993-.006c.966.06 1.103-1.356.135-1.478-.494-.04-.985-.079-1.478-.128-.832-.103-1.181 1.151-.285 1.449.048.014.086.02.138.027.497.048.992.091 1.49.13zm-8.894-1.367c.859.214 1.332-1.056.42-1.419-.483-.142-.993-.245-1.481-.382-.939-.236-1.348 1.112-.406 1.425.489.122.974.261 1.467.376zm-8.539-2.922c.803.374 1.489-.759.717-1.293l-.094-.052c-.438-.2-.88-.41-1.307-.629-.838-.42-1.532.773-.725 1.292.437.244.949.472 1.409.682zm-7.719-4.738c.794.611 1.676-.534.939-1.147a26.452 26.452 0 0 1-1.095-.94c-.646-.592-1.641.259-1.078 1.01.025.031.05.059.079.086.379.339.762.671 1.155.991zm-5.981-6.875a.75.75 0 0 0 .439.345c.641.182 1.174-.509.847-1.082a16.265 16.265 0 0 1-.658-1.255c-.361-.772-1.566-.431-1.395.478a.813.813 0 0 0 .05.146c.217.459.46.929.717 1.368zm-2.464-8.838c0 .912 1.359 1.029 1.48.07.006-.149.004-.304.006-.455l.027-.607.032-.41c.105-.842-1.152-1.176-1.445-.295a1.05 1.05 0 0 0-.03.142l-.037.469-.017.334-.011.333-.005.419zm2.395-8.858c-.468.818.738 1.589 1.277.749l.336-.585c.134-.219.268-.44.408-.655.478-.691-.464-1.611-1.176-.899-.112.148-.205.307-.304.463l-.201.33-.34.597zm5.762-7.027c-.7.643.205 1.71.95 1.138.255-.214.506-.445.761-.665l.373-.313a.741.741 0 0 0-.932-1.152c-.258.208-.511.431-.762.646l-.39.346z" fill-rule="evenodd" clip-rule="evenodd" fill="#fff"/><path d="M235.761 302.014c7.319 0 13.288-5.969 13.288-13.288s-5.969-13.289-13.288-13.289-13.289 5.97-13.289 13.289 5.97 13.288 13.289 13.288z" fill-rule="evenodd" clip-rule="evenodd" fill="#bfd2db"/><path d="M235.761 279.49c-1.428 0-2.72.58-3.654 1.514a5.148 5.148 0 0 0-1.515 3.655c0 1.427.579 2.719 1.515 3.653l.043.039a5.148 5.148 0 0 0 3.611 1.475 5.152 5.152 0 0 0 3.651-1.514l.002-.002a5.155 5.155 0 0 0 0-7.303 5.146 5.146 0 0 0-3.653-1.517zm7.175 18.501a11.668 11.668 0 0 1-7.175 2.453c-2.704 0-5.192-.915-7.175-2.453V297.511a7.15 7.15 0 0 1 2.067-5.026l.04-.043a7.145 7.145 0 0 1 10.137.003 7.151 7.151 0 0 1 2.108 5.066V297.991zM154.403 333.424h2.877c1.007 0 1.83.825 1.83 1.83v2.877c0 1.007-.823 1.83-1.83 1.83h-2.877a1.835 1.835 0 0 1-1.829-1.83v-2.877c0-1.004.823-1.83 1.829-1.83zM167.606 333.424h2.877c1.007 0 1.83.825 1.83 1.83v2.877c0 1.007-.823 1.83-1.83 1.83h-2.877a1.835 1.835 0 0 1-1.829-1.83v-2.877c0-1.004.823-1.83 1.829-1.83z" fill-rule="evenodd" clip-rule="evenodd" fill="#0f1734"/><path d="M180.808 333.424h2.878c1.006 0 1.829.825 1.829 1.83v2.877c0 1.007-.823 1.83-1.829 1.83h-2.878a1.835 1.835 0 0 1-1.829-1.83v-2.877c0-1.004.823-1.83 1.829-1.83z" fill-rule="evenodd" clip-rule="evenodd" fill="#e65d9b"/><path d="M194.011 333.424h2.877c1.007 0 1.83.825 1.83 1.83v2.877c0 1.007-.823 1.83-1.83 1.83h-2.877a1.835 1.835 0 0 1-1.829-1.83v-2.877c0-1.004.823-1.83 1.829-1.83zM207.214 333.424h2.877c1.006 0 1.829.825 1.829 1.83v2.877c0 1.007-.823 1.83-1.829 1.83h-2.877a1.835 1.835 0 0 1-1.83-1.83v-2.877c0-1.004.823-1.83 1.83-1.83z" fill-rule="evenodd" clip-rule="evenodd" fill="#0f1734"/><path d="M194.011 346.171h2.877c1.007 0 1.83.824 1.83 1.83v2.877a1.835 1.835 0 0 1-1.83 1.829h-2.877a1.834 1.834 0 0 1-1.829-1.829v-2.877c0-1.006.823-1.83 1.829-1.83z" fill-rule="evenodd" clip-rule="evenodd" fill="#fff"/><path d="M207.214 346.171h2.877c1.006 0 1.829.824 1.829 1.83v2.877a1.834 1.834 0 0 1-1.829 1.829h-2.877a1.835 1.835 0 0 1-1.83-1.829v-2.877c0-1.006.823-1.83 1.83-1.83zM220.417 346.171h2.876c1.007 0 1.83.824 1.83 1.83v2.877a1.835 1.835 0 0 1-1.83 1.829h-2.876a1.835 1.835 0 0 1-1.83-1.829v-2.877c0-1.006.823-1.83 1.83-1.83zM167.606 318.852h2.877c1.007 0 1.83.823 1.83 1.829v2.877c0 1.007-.823 1.83-1.83 1.83h-2.877a1.835 1.835 0 0 1-1.829-1.83v-2.877c0-1.006.823-1.829 1.829-1.829z" fill-rule="evenodd" clip-rule="evenodd" fill="#0f1734"/><path d="M211.195 141.021h33.304a4.411 4.411 0 0 1 4.397 4.398V176.444a.481.481 0 0 1-.302.453.485.485 0 0 1-.536-.105l-7.496-7.495h-29.368a4.412 4.412 0 0 1-4.399-4.399V145.42a4.414 4.414 0 0 1 4.4-4.399z" fill-rule="evenodd" clip-rule="evenodd" fill="#1b2852"/><path d="M209.019 138.845h33.304a4.412 4.412 0 0 1 4.399 4.398v31.026a.484.484 0 0 1-.304.453.48.48 0 0 1-.535-.108l-7.495-7.494h-29.369a4.412 4.412 0 0 1-4.399-4.398v-19.48a4.413 4.413 0 0 1 4.399-4.397z" fill-rule="evenodd" clip-rule="evenodd" fill="#fff"/><path d="M220.807 149.331c.496-.91 1.187-1.705 2.116-2.206.868-.468 1.338-1.216 1.599-2.146.313-1.12.327-2.44.327-3.597 0-.456.369-.825.824-.825h1.412c.143 0 .286.025.424.068.653.204 1.205.852 1.531 1.428.447.787.666 1.71.668 2.615a5.94 5.94 0 0 1-.278 1.784c-.125.401-.472 1.572-.311 1.974.041.03.192.033.241.033h3.54c.404 0 .813.044 1.202.149.547.147 1.046.417 1.424.845.459.524.643 1.173.643 1.862 0 .356-.049.714-.128 1.063.511 1.314.613 2.949-.424 4.025.064 1.087-.203 2.274-1.126 2.936-.503 1.533-1.734 2.526-3.403 2.526h-6.49c-1.108 0-2.216-.587-3.118-1.268a1.859 1.859 0 0 1-.484.826l-.028.027c-.342.321-.79.501-1.258.501h-2.951a1.835 1.835 0 0 1-1.837-1.837V150.8c0-.488.194-.953.55-1.308l.028-.026c.341-.321.79-.502 1.258-.502h2.951c.4 0 .783.13 1.098.367zm.74 9.151c.743.751 1.991 1.734 3.053 1.734h6.49c.944 0 1.712-.644 1.892-1.575a.83.83 0 0 1 .438-.571c.6-.3.617-1.283.531-1.834a.816.816 0 0 1 .318-.833c.783-.577.518-1.828.183-2.571a.806.806 0 0 1-.069-.603c.079-.295.139-.61.139-.915 0-.27-.048-.567-.233-.777-.154-.176-.389-.279-.611-.339a3.022 3.022 0 0 0-.775-.092h-3.54c-.79 0-1.431-.261-1.752-1.036-.37-.893-.025-2.235.249-3.11.132-.42.201-.855.202-1.294a3.693 3.693 0 0 0-.451-1.804c-.096-.169-.364-.572-.567-.657h-.551c-.02 1.074-.094 2.188-.383 3.217-.386 1.378-1.123 2.464-2.405 3.154-1.221.658-1.949 2.254-2.157 3.581v6.325h-.001zm-1.837-7.869h-2.951a.167.167 0 0 0-.112.037l-.02.02a.183.183 0 0 0-.055.13v9.316c0 .051.02.096.055.133a.19.19 0 0 0 .131.054h2.951a.168.168 0 0 0 .11-.033l.021-.021a.193.193 0 0 0 .055-.133V150.8a.183.183 0 0 0-.056-.131.176.176 0 0 0-.129-.056z" fill-rule="evenodd" clip-rule="evenodd" fill="#e63680"/><path d="M371.345 251.999s1.937 2.734 2.396 3.052c.459.318 1.801.42 2.363.746.562.327 4.584 5.005 4.667 5.233.084.227-.407 1.32-2 1.038 0 0-.276 1.144-1.644.933 0 0-.712.935-1.546.733 0 0-1.676.563-2.668-.127-.992-.691-2.738-3.191-3.021-3.952-.283-.76.143-2.369-1.377-3.811-1.52-1.442-2.182-4.059-2.182-4.059l5.012.214z" fill-rule="evenodd" clip-rule="evenodd" fill="#ef8771"/><path d="M370.347 258.067s-1.513.796-1.504 1.312c.009.517.21 1.068.641 1.14 0 0-.284 1.496 1.135 1.772 0 0 .094 1.186 1.265 1.47 0 0 .407.903.842 1.043.436.14 1.371-.259 1.815-.891.443-.63.969-1.821-.303-2.016 0 0 .574-1.45-.723-1.629 0 0 .238-2-1.95-1.457 0-.001-.193-1.233-1.218-.744z" fill-rule="evenodd" clip-rule="evenodd" fill="#f3ac83"/><path d="M361.536 395.195l2.654 5.741s.679 2.561.156 2.822c-.523.262-5.849 1.699-6.471 1.242-.621-.457-3.137-1.895-3.366-2.451-.228-.556-.327-4.119-.327-4.119l7.354-3.235z" fill-rule="evenodd" clip-rule="evenodd" fill="#ef8771"/><path d="M355.844 403.41l.842-.303s1.908 1.005 4.307.187c2.399-.82 3.048-2.166 3.048-2.166s.117-.273.376-.273h.566c.224 0 .849.097 1.108.713.258.613.799 4.363.062 6.44-.738 2.077-1.77 1.804-1.77 1.804s-4.099-1.21-6.864-.234c-2.765.976-5.298 1.99-5.298 1.99s.133-5.504 3.623-8.158z" fill-rule="evenodd" clip-rule="evenodd" fill="#010714"/><path d="M337.178 411.004l-.305-.895v-1.088c0-.406.172-1.63 1.354-1.63h4.531c1.049 0 6.73-2.887 11.095-6.44 0 0 .308-.361.767-.097.458.263 1.849 1.376 1.989 1.493.143.117.16.595.076.76-.083.167-4.123 8.167-4.123 8.167s-11.894 1.562-15.384-.27z" fill-rule="evenodd" clip-rule="evenodd" fill="#0f1734"/><path d="M336.873 410.109s-.266.22-.266.469v.871c0 .194.525 1.109 1.698 1.109h12.575c1.64 0 3.371-.416 4.49-.977 1.119-.562 3.24-1.187 3.24-1.187s.299-.101.299.414v.998c0 .251-.153.929.873.929h6.118c.466 0 .999-.265.999-1.217v-2.451c0-.593-.359-1.062-.745-1.062h-4.705c-1.972 0-3.545.484-5.997 1.639s-4.692 1.5-7.25 1.5h-7.038c-1.24.001-3.453-.281-4.291-1.035z" fill-rule="evenodd" clip-rule="evenodd" fill="#fff"/><path d="M262.784 397.663c-.081.562-.736 3.393-.727 3.464.117.833.321 2.504.321 2.504s-1.631 1.876-3.146 2.149c-1.514.272-8.384.58-8.471.205-.087-.375 1.718-3.342 1.718-3.342s1.95-1.637 2.213-5.423c.26-3.787 8.092.443 8.092.443z" fill-rule="evenodd" clip-rule="evenodd" fill="#ef8771"/><path d="M253.86 403.41l.842-.303s1.908 1.005 4.306.187c2.399-.82 3.049-2.166 3.049-2.166s.117-.273.376-.273h.566c.225 0 .85.097 1.108.713.259.613.799 4.363.062 6.44-.737 2.077-1.77 1.804-1.77 1.804s-4.098-1.21-6.863-.234c-2.766.976-5.298 1.99-5.298 1.99s.132-5.504 3.622-8.158z" fill-rule="evenodd" clip-rule="evenodd" fill="#010714"/><path d="M235.194 411.004l-.305-.895v-1.088c0-.406.171-1.63 1.354-1.63h4.532c1.049 0 6.73-2.887 11.095-6.44 0 0 .309-.361.767-.097.458.263 1.849 1.376 1.991 1.493.142.117.158.595.075.76l-4.123 8.167s-11.896 1.562-15.386-.27z" fill-rule="evenodd" clip-rule="evenodd" fill="#0f1734"/><path d="M234.889 410.109s-.266.22-.266.469v.871c0 .194.525 1.109 1.697 1.109h12.575c1.64 0 3.372-.416 4.491-.977 1.119-.562 3.238-1.187 3.238-1.187s.3-.101.3.414v.998c0 .251-.153.929.873.929h6.118c.465 0 .999-.265.999-1.217v-2.451c0-.593-.359-1.062-.746-1.062h-4.703c-1.974 0-3.546.484-5.999 1.639-2.451 1.155-4.69 1.5-7.249 1.5h-7.037c-1.241.001-3.453-.281-4.291-1.035z" fill-rule="evenodd" clip-rule="evenodd" fill="#fff"/><path d="M396.775 394.742c-.096.67-.881 4.05-.868 4.134.138.996.381 2.99.381 2.99s-1.946 2.239-3.754 2.564c-1.807.327-10.01.693-10.114.245-.104-.449 2.05-3.991 2.05-3.991s2.33-1.953 2.642-6.473c.314-4.519 9.663.531 9.663.531z" fill-rule="evenodd" clip-rule="evenodd" fill="#ef8771"/><g fill-rule="evenodd" clip-rule="evenodd"><path d="M433.813 71.025h128.506c11.779 0 21.416 9.638 21.416 21.417V391.32c0 11.779-9.637 21.416-21.416 21.416H433.813c-11.779 0-21.417-9.637-21.417-21.416V92.443c0-11.781 9.638-21.418 21.417-21.418z" fill="#c7c6cf"/><path d="M421.215 71.025h128.507c11.779 0 21.416 9.638 21.416 21.417V391.32c0 11.779-9.637 21.416-21.416 21.416H421.215c-11.778 0-21.417-9.637-21.417-21.416V92.443c0-11.781 9.639-21.418 21.417-21.418z" fill="#c7c6cf"/><path d="M421.215 74.429c-9.899 0-18.013 8.113-18.013 18.014V391.32c0 9.899 8.113 18.011 18.013 18.011h128.507c9.901 0 18.013-8.112 18.013-18.011V92.443c0-9.901-8.113-18.014-18.013-18.014H421.215z" fill="#fff"/><path d="M411.453 369.723V105.458c0-2.398 1.96-4.36 4.358-4.36h139.316a4.372 4.372 0 0 1 4.359 4.36v264.265a4.373 4.373 0 0 1-4.359 4.36H415.811a4.372 4.372 0 0 1-4.358-4.36z" fill="#e65d9b"/><path d="M411.453 120.581v-15.123c0-2.398 1.96-4.36 4.358-4.36h139.316a4.372 4.372 0 0 1 4.359 4.36v15.123H411.453zM411.453 369.723v-20.817h148.033v20.817a4.371 4.371 0 0 1-4.359 4.36H415.811a4.372 4.372 0 0 1-4.358-4.36z" fill="#e63680"/><path d="M455.393 90.717v-.001a2.525 2.525 0 0 1 2.519-2.518h55.116a2.525 2.525 0 0 1 2.517 2.518v.001a2.525 2.525 0 0 1-2.517 2.518h-55.116a2.525 2.525 0 0 1-2.519-2.518zM473.497 391.545c0-6.285 5.14-11.427 11.427-11.427h1.09c6.286 0 11.429 5.142 11.429 11.427 0 6.285-5.143 11.428-11.429 11.428h-1.09c-6.286 0-11.427-5.143-11.427-11.428z" fill="#c9c3d0"/><path d="M547.926 355.66h-9.459c-.458 0-.876.188-1.179.49l-.002.002c-.302.302-.49.72-.49 1.179l.001 9.67c-.009.278.028.433.343.546.503.217.516.038.681-.272l.015-.032c.144-.253.698-1.171 1.55-1.796.452-.333.991-.58 1.588-.58h.735v.62a1.381 1.381 0 0 0 1.38 1.381h5.166c.411 0 .783.172 1.099.404.579.426.967 1.037 1.094 1.255l.024.049c.162.316.288.444.699.268.321-.137.337-.27.327-.528.068-2.336 0-4.845 0-7.184a1.381 1.381 0 0 0-1.38-1.381h-.518v-2.419c0-.459-.188-.877-.49-1.179a1.673 1.673 0 0 0-1.184-.493zm-8.13 5.996h-.568a.322.322 0 1 1 0-.644h.568a.322.322 0 1 1 0 .644zm1.217-.644h5.227a.323.323 0 1 1 0 .644h-5.227a.322.322 0 0 1 0-.644zm5.582-2.483h.567a.322.322 0 0 1 0 .644h-.567a.323.323 0 0 1-.322-.323c0-.176.145-.321.322-.321zm-1.219.645h-6.148a.323.323 0 0 1-.322-.323c0-.176.145-.321.322-.321h6.148a.322.322 0 1 1 0 .644zm-2.595 5.693h5.145c.461 0 .878-.188 1.181-.49.302-.302.49-.721.49-1.18v-2.374h.518c.085 0 .162.033.217.089a.314.314 0 0 1 .091.219v5.649a4.305 4.305 0 0 0-.439-.372c-.478-.352-1.061-.615-1.731-.615h-5.166a.308.308 0 0 1-.307-.307v-.619h.001zm-4.314-8.135h9.459a.602.602 0 0 1 .599.599v5.865a.599.599 0 0 1-.599.598h-6.952c-.857 0-1.605.337-2.221.79a6.12 6.12 0 0 0-.884.807v-8.06a.602.602 0 0 1 .598-.599zM504.344 350.907a3.887 3.887 0 0 0-2.754 1.14 3.882 3.882 0 0 0-1.141 2.754 3.89 3.89 0 0 0 1.141 2.754l.032.03a3.887 3.887 0 0 0 5.473-.03l.002-.002a3.89 3.89 0 0 0-.001-5.505 3.866 3.866 0 0 0-2.752-1.141zm-4.335 13.956v-.377c0-1.179.477-2.253 1.247-3.035l.029-.026a4.322 4.322 0 0 1 3.06-1.274c1.191 0 2.275.489 3.061 1.274a4.319 4.319 0 0 1 1.274 3.061v3.137a.225.225 0 0 1-.065.159l-.002.004a.226.226 0 0 1-.157.064h-8.221a.228.228 0 0 1-.159-.066.229.229 0 0 1-.066-.16v-2.761h-.001zm-1.072-.018v2.779c0 .356.146.681.38.915l.002.002c.234.234.559.381.914.381h8.221c.355 0 .678-.147.915-.381l.001-.002c.237-.237.381-.56.381-.915v-3.137a5.386 5.386 0 0 0-1.588-3.817 5.392 5.392 0 0 0-3.82-1.591c-1.487 0-2.84.61-3.82 1.589l-.028.032a5.384 5.384 0 0 0-1.558 3.787V364.845zm3.412-12.041a2.814 2.814 0 0 1 1.995-.826c.78 0 1.485.316 1.995.826.511.51.827 1.216.827 1.996s-.316 1.486-.825 1.996l-.002.001a2.81 2.81 0 0 1-1.995.824 2.813 2.813 0 0 1-1.97-.799l-.025-.026a2.814 2.814 0 0 1-.826-1.996c0-.779.315-1.484.826-1.996zM462.696 356.21a5.566 5.566 0 0 0-1.846 1.069l-1.102-.637-.051-.026a.824.824 0 0 0-.574-.058.83.83 0 0 0-.501.385l-1.006 1.746a.82.82 0 0 0 .298 1.124l1.103.636a6.215 6.215 0 0 0-.103 1.069 5.701 5.701 0 0 0 .103 1.069l-1.101.636a.817.817 0 0 0-.302 1.125l1.008 1.744a.819.819 0 0 0 1.125.302l1.102-.637a5.558 5.558 0 0 0 1.848 1.069v1.273a.82.82 0 0 0 .241.581.82.82 0 0 0 .583.244h2.016a.825.825 0 0 0 .584-.243l.045-.051a.822.822 0 0 0 .197-.532v-1.273a5.556 5.556 0 0 0 1.847-1.069l1.102.637.051.026a.823.823 0 0 0 1.075-.326l1.006-1.746a.819.819 0 0 0-.3-1.125l-1.102-.636a6.215 6.215 0 0 0 .103-1.069 5.716 5.716 0 0 0-.103-1.067l1.102-.637a.822.822 0 0 0 .301-1.124l-1.007-1.745a.825.825 0 0 0-1.125-.302l-1.103.637a5.558 5.558 0 0 0-1.847-1.069v-1.273a.822.822 0 0 0-.241-.581.82.82 0 0 0-.584-.244h-2.016a.823.823 0 0 0-.583.243l-.045.051a.814.814 0 0 0-.196.532v1.272h-.002zm-.437 1.371a4.491 4.491 0 0 1 1.075-.449.536.536 0 0 0 .434-.526v-1.421h1.52v1.421a.535.535 0 0 0 .4.516 4.585 4.585 0 0 1 2.055 1.184.537.537 0 0 0 .657.096l1.231-.712.762 1.319-1.202.693a.541.541 0 0 0-.281.623 4.458 4.458 0 0 1 .159 1.192 4.422 4.422 0 0 1-.16 1.194h.002a.534.534 0 0 0 .25.603l1.231.71-.762 1.32-1.231-.711a.539.539 0 0 0-.648.085 4.523 4.523 0 0 1-2.031 1.185.536.536 0 0 0-.433.527v1.421h-1.52v-1.421a.538.538 0 0 0-.4-.517 4.546 4.546 0 0 1-2.055-1.184.536.536 0 0 0-.657-.096l-1.232.711-.761-1.32 1.189-.686a.536.536 0 0 0 .292-.627 4.433 4.433 0 0 1-.157-1.194 4.433 4.433 0 0 1 .157-1.194h-.001a.535.535 0 0 0-.25-.603l-1.23-.71.761-1.32 1.232.712c.205.118.472.09.648-.085.284-.286.604-.533.956-.736zm2.269 1.072a2.85 2.85 0 0 1 1.991.809l.034.031c.519.517.839 1.236.839 2.026 0 .788-.32 1.503-.839 2.023l-.001.002a2.862 2.862 0 0 1-4.048-.002 2.863 2.863 0 0 1 2.024-4.889zm-1.268 1.598a1.79 1.79 0 0 1 2.512-.026l.022.026c.324.323.526.772.526 1.267 0 .497-.2.945-.523 1.268l-.002.002a1.787 1.787 0 0 1-1.267.522 1.792 1.792 0 0 1-1.268-3.059zM420.802 359.716a4.727 4.727 0 0 0-1.39 3.353c0 1.215.464 2.429 1.39 3.356l.032.03a4.729 4.729 0 0 0 3.324 1.36 4.737 4.737 0 0 0 2.955-1.032l1.983 1.983c.209.21.549.21.758 0a.534.534 0 0 0 0-.759l-1.983-1.983a4.73 4.73 0 0 0 1.034-2.955 4.724 4.724 0 0 0-1.391-3.353 4.724 4.724 0 0 0-3.355-1.392 4.734 4.734 0 0 0-3.354 1.389l-.003.003zm5.963 5.939l-.009.011-.011.011a3.667 3.667 0 0 1-2.587 1.065c-.929 0-1.859-.35-2.572-1.049l-.025-.027a3.66 3.66 0 0 1-1.076-2.597c0-.941.359-1.881 1.074-2.599a3.677 3.677 0 0 1 6.273 2.598c0 .936-.355 1.871-1.067 2.587z" fill="#fff"/><path d="M537.162 353.124a2.816 2.816 0 1 1 0 5.633 2.816 2.816 0 0 1 0-5.633z" fill="#fcd882"/><path d="M537.491 357.285h-.552v-2.087c-.201.189-.438.33-.711.42v-.503c.142-.046.299-.136.468-.268.169-.133.285-.285.348-.462h.448v2.9zM418.707 106.873a.462.462 0 1 1 0-.924h10.116a.462.462 0 1 1 0 .924h-10.116zm0 6.646a.463.463 0 1 1 0-.926h10.116a.462.462 0 0 1 0 .926h-10.116zm0-3.323a.462.462 0 1 1 0-.925h10.116a.462.462 0 0 1 0 .925h-10.116zM552.282 106.833zm-12.165.51h5.939v4.78h-5.939a.473.473 0 0 1-.339-.141.478.478 0 0 1-.142-.336v-3.824a.484.484 0 0 1 .481-.479zm11.173-.925h-11.173c-.387 0-.739.157-.993.414a1.404 1.404 0 0 0-.411.99v3.824c0 .386.157.736.413.99.254.255.605.412.991.412h11.173a1.4 1.4 0 0 0 .961-.382l.031-.03c.255-.253.412-.604.412-.99v-3.824c0-.385-.157-.735-.414-.992a1.397 1.397 0 0 0-.99-.412z" fill="#fff"/></g><path d="M440.093 270.27s14.433 32.421 25.792 53.59c0 0 6.379 11.408 15.987 19.662 1.425 1.225 3.677 3.095 6.47 5.384h25.749c-11.751-12.123-22.869-23.635-25.006-25.952-4.797-5.198-18.354-64.48-21.456-71.151-3.105-6.671-7.203-15.663-16.743-19.105-9.542-3.442-17.789 28.708-10.793 37.572z" fill-rule="evenodd" clip-rule="evenodd" fill="#010714"/><path d="M428.216 258.311s-18.438 30.268-29.392 51.653c0 0-5.758 11.743-7.129 24.426-1.37 12.68-4.89 59.323-4.89 59.323s-.123 1.437.88 1.66c1.003.224 7.487.644 8.171.644.685 0 1.518-.52 1.663-1.734.147-1.213 15.962-61.308 17.527-68.243 4.042-17.9 58.114-50.126 51.76-75.996-2.791-11.369-35.26-2.567-38.59 8.267z" fill-rule="evenodd" clip-rule="evenodd" fill="#0f1734"/><path d="M380.506 260.673l6.865-5.105-4.196-5.126-5.328 4.603s-2.639-1.179-3.698-.77c-1.058.411-2.375 1.134-2.676 1.314-.301.18-.681 1.685-.733 1.992-.052.307.489.567 1.178.024.689-.542 1.1-.882 1.251-1.041.151-.16.874-.044 1.392-.3l5.945 4.409z" fill-rule="evenodd" clip-rule="evenodd" fill="#f3ac83"/><path d="M384.05 248.882l-3.135 1.293s-1.015.366-1.786.97c-.77.605-1.723 1.533-1.892 1.776-.168.24-.548 1.402.392 2.821.942 1.418 2.488 4.037 3.82 4.333 1.331.296 4.488-2.078 4.853-2.247.366-.171-2.252-8.946-2.252-8.946z" fill-rule="evenodd" clip-rule="evenodd" fill="#273078"/><path d="M483.717 258.204s-.771.283-1.173-.048c-.403-.333-.534-1.723-.502-2.88.032-1.157.118-2.557.118-2.557s-1.478-2.059-1.616-3.148c-.137-1.088-.345-1.681-.159-1.663.184.018 4.488 2.621 4.727 3.527.241.903-1.395 6.769-1.395 6.769z" fill-rule="evenodd" clip-rule="evenodd" fill="#ee858e"/><path d="M418.624 183.304c-4.914 5.632-15.103 41.887-15.665 43.914-.562 2.027-21.214 21.952-21.965 22.748-.752.794 4.007 6.746 5.308 7.861 0 0 25.041-13.591 31.606-22.363 6.563-8.775 12.104-32.237 11.575-34.582-2.29-10.125-5.946-23.212-10.859-17.578z" fill-rule="evenodd" clip-rule="evenodd" fill="#fff"/><path d="M409.692 204.974c-.445 1.36-.881 2.719-1.305 4.059 3.317 3.245 8.882 5.915 18.22 5.861.359-1.248.691-2.467.992-3.633-10.216.267-15.339-2.943-17.907-6.287zm-2.55 8.048c2.882 3.25 8.247 6.162 18.233 5.913-.389 1.213-.803 2.43-1.234 3.633-9.072.006-14.71-2.459-18.211-5.558.379-1.265.786-2.602 1.212-3.988z" fill-rule="evenodd" clip-rule="evenodd" fill="#273078"/><path d="M412.881 178.648l-1.925 4.046s.909 1.088 1.048 1.589c.14.501-.591 6.659-.007 13.67.586 7.012 5.911 37.511 5.911 37.511s10.804 1.461 10.321-.281c-.483-1.742-15.348-56.535-15.348-56.535z" fill-rule="evenodd" clip-rule="evenodd" fill="#eaeaee"/><path d="M425.46 257.288l-1.856 2.436s.297 3.437.607 4.054c.313.616 1.689 1.688 4.801 1.247 3.113-.441 24.571-5.406 37.847-12.652 0 0 .875-.571.942-1.339.068-.768-1.859-4.503-1.859-4.503l-4.442-1.814-36.04 12.571z" fill-rule="evenodd" clip-rule="evenodd" fill="#fff"/><path d="M406.273 153.084l-.001.001c-3.569 1.783-5.24 6.078-3.472 9.654l8.993 18.198c1.769 3.578 2.969-1.356 6.96-1.356h.001c3.61-1.701 5.172-6.045 3.472-9.656l-6.297-13.371c-1.702-3.607-6.047-5.17-9.656-3.47z" fill-rule="evenodd" clip-rule="evenodd" fill="#f3ac83"/><path d="M418.092 162.818c.036.015-.092.469-.067 1.363l-3.121.976s.148.915.468 2.04c-1.065-.188-2.134-.082-3.02.362 0 0-5.731 5.332-5.469 6.304l-.11.041c-6.302 2.375-7.809-.412-8.06-1.08-.252-.667-1.396-4.108-1.619-4.299-.225-.189-1.719.374-2.041-.481-.323-.854-1.266-6.109-1.656-12.974-.392-6.865 4.677-11.702 4.677-11.702 11.379-2.002 11.224 13.607 13.133 12.034 1.907-1.571 4.261-.507 4.264 2.419 0 .408 2.761 4.637 2.621 4.997z" fill-rule="evenodd" clip-rule="evenodd" fill="#f3ac83"/><path d="M406.97 156.598c-.005 0-4.554-.246-4.396-7.196 0 0-6.047 2.825-8.977 2.467 0 0-2.649-2.44-2.739-5.613-.09-3.173 10.028-10.057 13.62-11.794 3.592-1.736 11.972.948 13.798 6.162 0 0 3.503 1.262 4.281 3.837.775 2.567-3.384 18.851-3.406 18.936-.423.951-1.288 1.664-2.22 1.19-1.402-.777-2.655-2.027-2.922-4.042 0 0 1.171-4.898-1.274-5.419 0 0-1.784-.972-2.613 2.474 0 0-.001 1.692.504 3.102.509 1.41 2.208 4.702 1.644 10.128-.561 5.427-6.066 5.99-7.868 6.669-1.803.679-4.188.663-4.881-1.179l-2.498-6.628c-.238-.63-.109-1.106.069-1.167 0 0 3.038-.964 5.265-1.55 2.225-.587 3.861-.861 4.747-2.452.887-1.591 1.547-2.87.993-5.314a7.947 7.947 0 0 0-1.127-2.611zm-13.373-4.729l-.178-.032c.06.013.119.025.178.032z" fill-rule="evenodd" clip-rule="evenodd" fill="#010714"/><path d="M408.709 182.716c2.255-5.15 10.515-15.153 15.005-16.398.478-.133.882.388 1.102.678.221.291 1.049 3.953 1.205 4.262.156.308 12.515 9.537 17.471 19.978 4.958 10.441 22.897 48.465 23.414 49.822.517 1.357-.6 4.761-.966 5.472 0 0-25.698 12.331-42.339 13.194 0 0-3.651-3.02-4.293-4.999-.644-1.978-7.454-61.163-7.509-63.399-.057-2.233.435-6.544.202-7.042-.231-.5-1.738.065-2.189-.208-.448-.274-1.478-.692-1.103-1.36z" fill-rule="evenodd" clip-rule="evenodd" fill="#bfd2db"/><path d="M434.448 177.968c3.595 3.008 7.353 7.496 9.524 12.072 4.958 10.439 22.419 49.662 22.936 51.018.516 1.358-.6 4.763-.966 5.474 0 0-8.694 4.17-19.242 7.831 2.311-3.296 4.23-5.016 4.657-10.051.426-5.035 1.396-12.323-5.639-21.7-7.032-9.379-20.643-22.209-20.643-22.209l9.959-.932s-2.106-2.864.852-8.774c1.835-3.667.142-9.354-1.438-12.729z" fill-rule="evenodd" clip-rule="evenodd" fill="#273078"/><path d="M398.086 160.968a.956.956 0 0 1 1.118.749l.238 1.217a.953.953 0 0 1-.749 1.116.953.953 0 0 1-1.116-.749l-.239-1.217a.952.952 0 0 1 .748-1.116z" fill-rule="evenodd" clip-rule="evenodd" fill="#02050f"/><path d="M399.419 164.529a1.407 1.407 0 0 1 .542 2.759 1.405 1.405 0 1 1-.542-2.759z" fill-rule="evenodd" clip-rule="evenodd" fill="#db5744"/><path d="M399.158 159.434a.29.29 0 0 0 .164-.553c-.007-.001-1.849-.597-3.199.578a.287.287 0 1 0 .377.434c1.106-.96 2.653-.46 2.658-.459z" fill-rule="evenodd" clip-rule="evenodd" fill="#02050f"/><path d="M487.82 245.642l-1.631-.075s-5.246-3.035-3.937.997c1.307 4.032-3.778 2.706-3.778 2.706l-.23 4.183.107.657s2.509 3.919 5.123 3.102c2.615-.818 1.34-3.411 1.34-3.411l.065 3.084-.049 1.03s3.562-1.733 3.954-2.222c.392-.49 2.245-3.288 2.773-3.948.527-.661-3.737-6.103-3.737-6.103z" fill-rule="evenodd" clip-rule="evenodd" fill="#ef8771"/><path d="M386.12 401.602l1.005-.361s2.277 1.199 5.141.221c2.864-.979 3.64-2.587 3.64-2.587s.14-.327.447-.327h.677c.269 0 1.013.117 1.322.851.308.733.954 5.209.073 7.689-.88 2.48-2.112 2.154-2.112 2.154s-4.893-1.443-8.195-.279c-3.302 1.165-6.325 2.376-6.325 2.376s.161-6.569 4.327-9.737z" fill-rule="evenodd" clip-rule="evenodd" fill="#010714"/><path d="M363.837 410.668l-.365-1.069V408.3c0-.484.203-1.945 1.615-1.945h5.41c1.253 0 8.035-3.449 13.247-7.688 0 0 .368-.432.914-.118.547.315 2.208 1.643 2.377 1.784.169.14.189.709.09.908l-4.922 9.75s-14.202 1.865-18.366-.323z" fill-rule="evenodd" clip-rule="evenodd" fill="#0f1734"/><path d="M363.472 409.599s-.318.265-.318.559v1.041c0 .234.626 1.326 2.026 1.326h15.013c1.959 0 4.025-.496 5.362-1.167 1.336-.671 3.867-1.416 3.867-1.416s.358-.121.358.494v1.193c0 .298-.182 1.108 1.043 1.108h7.304c.558 0 1.193-.316 1.193-1.454v-2.925c0-.708-.43-1.268-.891-1.268h-5.616c-2.355 0-4.233.578-7.16 1.958-2.928 1.378-5.601 1.789-8.656 1.789h-8.401c-1.479 0-4.124-.337-5.124-1.238z" fill-rule="evenodd" clip-rule="evenodd" fill="#fff"/><path d="M510.8 187.847c-3.93 5.666-4.273 28.543-4.61 30.636-.336 2.094-19.768 25.399-20.432 26.279-.664.88 4.765 6.309 6.194 7.281 0 0 25.556-15.878 31.152-25.399 5.595-9.519 7.505-35.209 6.713-37.5-3.424-9.886-14.36-8.011-19.017-1.297z" fill-rule="evenodd" clip-rule="evenodd" fill="#f1f1f4"/><path d="M516.157 189.232s9.953-15.338 10.336-15.748c.382-.408-2.613-2.59-2.613-2.59s-13.993 9.971-14.66 10.785c-.667.814 6.937 7.553 6.937 7.553z" fill-rule="evenodd" clip-rule="evenodd" fill="#e2e3e7"/><path d="M517.367 157.345l5.415 6.729s1.193 2.362 3.568 3.518c2.376 1.157-1.177 9.566-1.177 9.566l-9.645 1.681s-.651-3.206-3.228-5.957c-2.579-2.752 5.067-15.537 5.067-15.537z" fill-rule="evenodd" clip-rule="evenodd" fill="#f3ac83"/><path d="M555.748 259.406s1.541 6.894 3.739 16.665v71.146c-2.956-6.988-23.598-54.342-23.598-54.342s12.11-31.96 19.859-33.469z" fill-rule="evenodd" clip-rule="evenodd" fill="#010714"/><path d="M546.644 273.932c-.146-.506.084-1.04.511-1.191.429-.15.895.137 1.042.643.031.105 5.88 20.372 11.289 39.19v5.955c-5.77-20.1-12.809-44.481-12.842-44.597z" fill-rule="evenodd" clip-rule="evenodd" fill="#0f1734"/><path d="M524.663 260.894c-6.421 20.038-19.913 52.645-20.259 71.849-.044 2.332-.193 8.436-.391 16.163h15.666c.848-6.285 1.524-10.976 1.849-12.445 1.353-6.112 35.215-59.128 36.534-66.984.436-2.597-.075-5.889-1.169-7.492-2.845-4.166-1.86-9.173-1.86-9.173l-30.37 8.082z" fill-rule="evenodd" clip-rule="evenodd" fill="#0f1734"/><path d="M517.374 348.906c.142-1.856.244-3.524.336-5.063.313-5.119.533-8.753 1.894-13.176 2.138-6.939 32.523-67.007 33.761-69.454l-2.28.315a3261.96 3261.96 0 0 0-8.042 16.02c-.536-1.707-3.818-10.862-3.803-11.776.007-.455.308-1.482.729-2.71l-2.041.282c-.315 1.01-.524 1.848-.533 2.304-.03 1.577 4.038 12.865 4.492 14.218-7.874 15.815-22.775 46.032-24.041 50.141-1.428 4.642-1.656 8.374-1.976 13.629-.096 1.59-.202 3.323-.353 5.271h1.857z" fill-rule="evenodd" clip-rule="evenodd" fill="#010714"/><path d="M522.128 163.488c.033.016-.115.459-.133 1.347l-3.141.819s.103.915.367 2.045c-1.048-.237-2.112-.181-3.012.217 0 0-5.937 5.015-5.724 5.992l-.111.038c-6.362 2.054-7.725-.78-7.943-1.454-.217-.674-1.189-4.141-1.402-4.34-.212-.199-1.723.289-2.002-.574-.278-.863-.964-6.118-1.026-12.946-.061-6.827 5.195-11.383 5.195-11.383 11.382-1.446 10.487 14.026 12.452 12.558 1.968-1.47 4.251-.302 4.116 2.6-.018.406 2.519 4.73 2.364 5.081z" fill-rule="evenodd" clip-rule="evenodd" fill="#f3ac83"/><path d="M501.031 168.151s3.06-.811 5.294-1.288c2.235-.476 3.87-.669 4.824-2.206.957-1.537 1.673-2.773 1.238-5.223-1.012-5.709-4.273-2.866-3.556-7.693.429-2.884-2.873-3.353-10.015-1.85-16.245-14.251 34.265-21.879 25.628 9.265-.644 2.325-.224.894-.296 1.308-.002.009-.456 1.584-.726 2.878-.263 1.258-1.39 2.497-2.53 1.843-1.353-.835-2.537-2.133-2.706-4.145 0 0 1.395-4.802-1.005-5.435 0 0-1.724-1.048-2.71 2.33 0 0-.082 1.679.355 3.101.437 1.421 1.965 4.767 1.148 10.122-.816 5.355-6.3 5.653-8.121 6.241-1.818.587-4.183.457-4.784-1.402l-2.161-6.692c-.207-.636-.056-1.101.123-1.154z" fill-rule="evenodd" clip-rule="evenodd" fill="#010714"/><path d="M528.027 169.568l1.384-.114s6.608 3.032 12.596 6.707l.004.002c.133.095 4.374 3.175 6.841 7.174 2.506 4.064-1.52 11.898-1.52 11.898s4.266 2.911 7.366 5.126c.212 1.391-.058 16.979.675 31.299.667 13.065 4.113 21.764.895 27.448l-33.912 5.258c-5.883-14.641-4.911-11.732-6.696-30.499-1.786-18.767-9.37-38.155-2.977-53.402 0 .001 12.801-7.595 15.344-10.897z" fill-rule="evenodd" clip-rule="evenodd" fill="#fff"/><path d="M512.824 180.444s13.227-12.625 13.559-13.077c.33-.452 3.029 2.087 3.029 2.087s-7.203 15.6-7.881 16.405c-.675.808-8.707-5.415-8.707-5.415zM527.53 192.759c2.731 7.346 23.838 22.523 25.573 24.198.896.867 3.768 10.187 6.383 19.147v-45.039c-7.944-7.879-16.799-14.743-18.394-15.193-11.441-3.231-16.797 8.184-13.562 16.887z" fill-rule="evenodd" clip-rule="evenodd" fill="#f1f1f4"/><path d="M521.419 264.512l34.849-5.403c.565-.086 1.109.384 1.212 1.045l.232 1.499c.103.661-.276 1.275-.839 1.363l-34.848 5.402c-.565.088-1.11-.382-1.212-1.044l-.233-1.499c-.102-.663.276-1.277.839-1.363z" fill-rule="evenodd" clip-rule="evenodd" fill="#010714"/><path d="M477.478 254.513s-1.55-3.582-1.801-4.365c-.252-.781-.031-1.814.149-3.546.179-1.732.603-5.081.41-5.827-.193-.746-1.56-3.32-1.56-3.32l5.436-1.84s1.083 4.591 1.611 5.569c.527.979 3.765 7.01 4.151 8.16.387 1.152-.906 9.604-1.096 9.988-.192.385-1.319-.124-1.443-1.607-.123-1.481.136-4.724.136-4.724s-2.576-2.873-2.926-3.433c0 0-1.282.637-1.612.854-.33.217.037 2.402-.038 2.86-.075.459-.969 1.396-1.417 1.231z" fill-rule="evenodd" clip-rule="evenodd" fill="#f3ac83"/><path d="M475.568 237.154l-2.471 3.263s-.168.637.266 1.538c.433.901 1.24 2.105 2.401 1.984 1.161-.12 6.778-2.176 7.171-3.127.394-.948.495-3.253-1.193-4.582-1.688-1.327-6.174.924-6.174.924z" fill-rule="evenodd" clip-rule="evenodd" fill="#273078"/><path d="M423.346 198.792c4.495 5.561 27.16 12.558 29.146 13.503 1.985.945 19.52 27.063 20.203 27.979.682.917 7.664-2.905 9.047-4.044 0 0-10.038-26.459-17.883-34.797-4.7-4.996-16.545-14.315-21.924-18.259l-.019-.014-.057-.04c-14.127-10.372-15.488-11.434-15.828-11.852h-.002s-7.785 1.597-14.024 13.014c3.619 4.886 7.52 9.783 11.341 14.51z" fill-rule="evenodd" clip-rule="evenodd" fill="#fff"/><path d="M430.06 203.393a78.493 78.493 0 0 0 3.306 1.575c3.5-12.394 9.331-16.522 13.972-17.691a264.208 264.208 0 0 0-3.502-2.685c-4.974 2.107-10.385 7.222-13.776 18.801zm6.966 3.144c3.408-10.574 8.662-15.075 13.391-16.835 1.151.919 2.324 1.867 3.482 2.82-4.296.807-9.949 4.185-13.504 15.351a179.37 179.37 0 0 1-3.369-1.336z" fill-rule="evenodd" clip-rule="evenodd" fill="#273078"/><path d="M366.663 255.392c.588.555 1.477.397 1.477.397 1.183-.258 4.542-3.388 4.439-4.154-.103-.766-15.556-25.491-19.87-32.289-4.315-6.797-26.066-34.253-26.066-34.253l-7.007-.52s-1.965 8.99-.851 13.629c1.116 4.638 21.832 23.269 23.661 25.491 1.831 2.222 24.217 31.699 24.217 31.699z" fill-rule="evenodd" clip-rule="evenodd" fill="#fff"/><path d="M297.799 263.188l-8.147 7.044s-14.997 55.289-16.196 61.857c-1.176 6.435-10.626 46.565-18.924 63.783-.618 1.28-1.02 1.695-.186 2.342l7.729 1.013c1.114.395 1.028-.431 1.602-2.009 2.878-7.914 16.868-35.748 18.747-40.172 2.033-4.788 2.606-9.881 2.963-11.379.358-1.498 31.711-62.418 34.484-72.527 2.774-10.108-22.072-9.952-22.072-9.952z" fill-rule="evenodd" clip-rule="evenodd" fill="#e63680"/><path d="M303.242 270.599l-4.179 3.276s19.959 46.062 24.096 51.407c4.012 5.182 23.094 51.756 30.132 71.753.517 1.467.498 2.756 1.634 2.374 1.189-.465 7.681-1.486 7.74-2.674.02-.404-.318-.89-.542-1.616-3.523-11.369-13.787-57.107-15.834-61.401-2.302-4.828-5.715-8.657-6.605-9.939-.891-1.284-9.413-54.756-15.193-63.695-5.781-8.939-21.249 10.515-21.249 10.515z" fill-rule="evenodd" clip-rule="evenodd" fill="#e65d9b"/><path d="M304.467 169.781l-.501 6.007s3.406.303 4.002 4.081c.598 3.779 3.486 6.75 3.486 6.75s10.724-5.677 10.476-6.335c-.104-.278-3.292-7.411-5.744-10.078-3.354-3.651-5.677-2.084-11.719-.425z" fill-rule="evenodd" clip-rule="evenodd" fill="#ef8771"/><path d="M303.467 175.723c-4.158-.592-4.418-2.965-4.412-3.547.008-.677.184-4.115.052-4.36-.133-.245-1.65-.263-1.64-1.129.009-.868.989-5.839 3.011-12.045 2.023-6.206 8.174-8.736 8.174-8.736 3.796.763 8.684 1.787 9.672 4.003 3.532 7.926 1.492 28.145-14.857 25.814z" fill-rule="evenodd" clip-rule="evenodd" fill="#f3ac83"/><path d="M295.017 200.945c-.623 2.808-.355 8.639-.355 8.639s.621 35.793-5.134 48.73c-5.755 12.937-6.212 13.91-6.157 14.856.055.945 10.826.729 20.518 5.47 9.689 4.74 23.254 2.486 30.438-.558 0 0 1.75-.798 1.029-2.897-.721-2.1-11.17-14.712-8.465-48.611.694-8.709 3.533-24.578 2.076-33.54-.906-5.576-3.363-10.385-4.228-11.868-1.184-2.023-2.684-3.063-4.036-2.666-1.296.379-11.28 3.936-12.087 4.223-6.742 5.658-12.711 14.229-13.599 18.222z" fill-rule="evenodd" clip-rule="evenodd" fill="#010714"/><path d="M310.253 151.409c-1.377 2.169-4.517 3.826-9.574 2.663-.07.187-.138.376-.201.571a103.114 103.114 0 0 0-1.434 4.779s-6.845-5.538-7.292-11.879c-.445-6.339 12.946-10.547 15.748-10.703 2.802-.156 3.549 2.968 3.549 2.968s5.616-2.615 10.956-.503 8.379 11.443 8.469 16.382c.063 3.479-3.581 9.19-2.963 16.157.813 8.777-15.671 7.694-17.422 6.601-1.692-1.055-1.169-4.018-1.132-4.221.324-.685.673-1.376 1.056-2.071 0 0 4.625-6.808 2.956-10.145-1.67-3.336-4.151-4.325-2.716-10.599z" fill-rule="evenodd" clip-rule="evenodd" fill="#010714"/><path d="M306.78 191.994c-7.024 8.218-14.294 21.497-15.248 22.211-.952.715-1.089.716-2.631-.068-1.543-.783-9.931-28.225-10.266-29.722-.345-1.541-7.229-.771-6.608 1.392 1.911 6.652 5.99 30.901 7.181 34.474 1.192 3.573 7.026 10.074 14.493 5.969 7.468-4.104 20.123-19.794 22.024-21.627 8.393-8.097-2.17-20.556-8.945-12.629z" fill-rule="evenodd" clip-rule="evenodd" fill="#fff"/><path d="M277.633 169.556h.001c1.016.508 1.228 1.972.534 2.871l-7.902 10.226c-.695.899-1.855 1.042-2.87.534h-.001c-1.016-.508-1.229-1.972-.534-2.871l7.902-10.226c.693-.898 1.855-1.042 2.87-.534z" fill-rule="evenodd" clip-rule="evenodd" fill="#010714"/><g fill-rule="evenodd" clip-rule="evenodd"><path d="M266.405 147.867c1.145.586.214 4.695-2.08 9.177-2.294 4.483-5.082 7.642-6.227 7.056-1.145-.586-.214-4.694 2.08-9.176 2.294-4.484 5.082-7.643 6.227-7.057z" fill="#0f1734"/><path d="M276.628 158.099l9.345 5.131c2.786 1.528 3.813 5.057 2.285 7.843h-.001c-1.528 2.786-5.057 3.813-7.844 2.285l-9.344-5.131-14.376-.684a.843.843 0 0 1-.711-.44.84.84 0 0 1-.004-.837l10.893-19.844a.838.838 0 0 1 .707-.446.838.838 0 0 1 .753.365l8.297 11.758z" fill="#e65d9b"/><path d="M287.588 172.041c-1.738 2.036-4.74 2.652-7.175 1.317l-9.344-5.131-14.376-.684a.841.841 0 0 1-.711-.44.841.841 0 0 1-.004-.838l5.025-9.154c.481 2.787 1.044 5.311 1.551 5.704 1.201.929 8.875.851 9.999 1.225 1.029.343 10.572 6.849 15.035 8.001z" fill="#e63680"/><path fill="#1c2b59" d="M279.46 159.653l5.277 2.898-6.016 9.877-4.835-2.654z"/><path d="M280.851 168.932l-2.13 3.496-4.835-2.654 2.062-3.743c1.43.872 3.157 1.92 4.903 2.901z" fill="#0f1734"/></g><path d="M303.015 160.648a.954.954 0 0 1 .791 1.088l-.194 1.225a.957.957 0 0 1-1.089.79.955.955 0 0 1-.791-1.088l.195-1.225a.952.952 0 0 1 1.088-.79z" fill-rule="evenodd" clip-rule="evenodd" fill="#02050f"/><path d="M303.04 164.45c.767.121 1.29.842 1.168 1.608a1.408 1.408 0 0 1-2.778-.44 1.408 1.408 0 0 1 1.61-1.168z" fill-rule="evenodd" clip-rule="evenodd" fill="#db5744"/><path d="M304.55 159.575c.127.095.308.07.403-.058a.29.29 0 0 0-.058-.404c-.005-.002-1.53-1.197-3.202-.56a.288.288 0 1 0 .206.539c1.366-.521 2.647.481 2.651.483zM501.473 159.138a.955.955 0 0 1 1.098.777l.208 1.223a.952.952 0 0 1-1.874.32l-.21-1.224a.955.955 0 0 1 .778-1.096z" fill-rule="evenodd" clip-rule="evenodd" fill="#02050f"/><path d="M502.715 162.732a1.406 1.406 0 1 1 .475 2.77 1.406 1.406 0 0 1-.475-2.77z" fill-rule="evenodd" clip-rule="evenodd" fill="#db5744"/><path d="M502.583 157.631a.286.286 0 0 0 .362-.186.29.29 0 0 0-.185-.363c-.006-.001-1.834-.642-3.212.497a.288.288 0 1 0 .367.445c1.127-.932 2.664-.394 2.668-.393z" fill-rule="evenodd" clip-rule="evenodd" fill="#02050f"/><path d="M351.281 148.92h26.688a3.534 3.534 0 0 1 3.523 3.524V177.306a.385.385 0 0 1-.243.363.388.388 0 0 1-.429-.085l-6.005-6.007h-23.534a3.534 3.534 0 0 1-3.526-3.523v-15.611a3.535 3.535 0 0 1 3.526-3.523z" fill-rule="evenodd" clip-rule="evenodd" fill="#1b2852"/><path d="M349.538 147.176h26.687a3.536 3.536 0 0 1 3.526 3.524v24.863a.388.388 0 0 1-.243.363.385.385 0 0 1-.429-.085l-6.006-6.006h-23.534a3.534 3.534 0 0 1-3.524-3.524V150.7a3.532 3.532 0 0 1 3.523-3.524z" fill-rule="evenodd" clip-rule="evenodd" fill="#e65d9b"/><path d="M362.882 149.681c2.189 0 4.271.863 5.819 2.412a8.208 8.208 0 0 1 2.411 5.82 8.21 8.21 0 0 1-2.411 5.82 8.2 8.2 0 0 1-5.819 2.41 8.21 8.21 0 0 1-5.821-2.41 8.207 8.207 0 0 1-2.41-5.82c0-2.19.862-4.271 2.41-5.82a8.207 8.207 0 0 1 5.821-2.412zm7.339 8.671h-3.359c-.023.893-.111 1.79-.28 2.667.843.197 1.699.488 2.465.902a7.325 7.325 0 0 0 1.174-3.569zm-4.238 0h-2.663v2.26a16.5 16.5 0 0 1 2.401.232c.158-.819.241-1.659.262-2.492zm-3.54 0h-2.663c.02.833.104 1.673.26 2.492a16.54 16.54 0 0 1 2.402-.232v-2.26h.001zm-3.541 0h-3.36a7.325 7.325 0 0 0 1.174 3.569c.765-.414 1.622-.706 2.465-.902a16.13 16.13 0 0 1-.279-2.667zm-3.36-.878h3.36c.018-.758.086-1.518.208-2.267-.887-.213-1.798-.532-2.586-.99a7.304 7.304 0 0 0-.982 3.257zm4.428-2.086a15.506 15.506 0 0 0-.19 2.086h2.663v-1.843a16.389 16.389 0 0 1-2.473-.243zm5.823 0c-.814.146-1.645.224-2.472.243v1.843h2.663c-.02-.699-.08-1.397-.191-2.086zm1.068 2.086h3.359a7.309 7.309 0 0 0-.983-3.257c-.79.459-1.701.777-2.585.99.123.749.191 1.509.209 2.267zm-3.541-6.834v4.113c.771-.02 1.546-.092 2.306-.227a10.059 10.059 0 0 0-.636-1.94c-.312-.687-.888-1.663-1.67-1.946zm0 10.85v3.695c.781-.284 1.357-1.26 1.67-1.945.225-.494.4-1.015.538-1.539a16.005 16.005 0 0 0-2.208-.211zm-.877 3.695v-3.695c-.739.02-1.48.088-2.208.211.137.525.313 1.045.538 1.539.312.686.888 1.661 1.67 1.945zm0-10.432v-4.113c-.781.283-1.357 1.258-1.67 1.945a10.157 10.157 0 0 0-.638 1.94c.761.136 1.535.208 2.308.228zm-5.431-1.269c.694.395 1.492.672 2.265.861.165-.725.39-1.448.697-2.124a6.45 6.45 0 0 1 .812-1.358 7.357 7.357 0 0 0-3.774 2.621zm9.473.861c.772-.188 1.571-.465 2.265-.861a7.556 7.556 0 0 0-.671-.769 7.338 7.338 0 0 0-3.105-1.852c.332.414.6.89.813 1.358.308.676.533 1.399.698 2.124zm2.033 8.289a9.194 9.194 0 0 0-2.129-.759c-.153.59-.349 1.174-.601 1.727a6.486 6.486 0 0 1-.813 1.36 7.349 7.349 0 0 0 3.543-2.328zm-9.145-.759c-.725.169-1.463.414-2.128.759a7.355 7.355 0 0 0 3.542 2.329 6.53 6.53 0 0 1-.813-1.359 10.817 10.817 0 0 1-.601-1.729z" fill-rule="evenodd" clip-rule="evenodd" fill="#fff"/><path d="M276.376 181.249c1.137-3.411 1.451-4.077 1.569-5.608.118-1.528 0-3.137 0-3.137l-2.393 3.491.824 5.254z" fill-rule="evenodd" clip-rule="evenodd" fill="#ef8771"/><path d="M277.88 184.169s-1.164-3.005-1.167-3.315c-.004-.311.35-3.458.275-4.126-.05-.433-1.073-2.397-1.855-4.031l-.11-.045c-.432-1.238-1.073-1.893-1.716-1.893-.667 0-1.451.627-1.49 1.137-.013.17-.035.317-.059.437l-.235.372c-.323.026-1.135.219-1.569 1.428l-.023.297c-.197.063-.663-.015-1.096.31-.433.324-.293 2.099-.293 2.099l-.433.253c-.431.256-.235 1.294-.195 1.628.02.007.041.011.061.015l4.37 5.599c.178.753.324 1.444.324 1.444s3.348.806 5.211-1.609z" fill-rule="evenodd" clip-rule="evenodd" fill="#f3ac83"/><path d="M480.999 247.879s-2.216.322-2.43.965c-.216.642-.208 1.411.291 1.687 0 0-1.004 1.725.627 2.689 0 0-.404 1.505.92 2.369 0 0 .108 1.294.586 1.656.477.362 1.807.279 2.631-.305.823-.585 1.994-1.827.508-2.626 0 0 1.342-1.538-.181-2.329 0 0 1.17-2.365-1.771-2.652 0 0 .301-1.606-1.181-1.454z" fill-rule="evenodd" clip-rule="evenodd" fill="#ef8771"/><path d="M555.072 410.847c5.355-6.387 12.369-13.526 20.751-19.342 20.353-14.124 40.577-6.198 42.509 1.446.787 3.118.089 10.474-3.501 19.266h-57.699a71.501 71.501 0 0 1-2.06-1.37z" fill-rule="evenodd" clip-rule="evenodd" fill="#bfd2db"/><path d="M570.037 412.217c1.809-4.528 5.069-12.296 7.732-16.503.227-.36.593-.493.816-.295.224.197.22.648-.007 1.009-2.51 3.967-5.606 11.298-7.408 15.789h-1.133zm2.497 0h4.675a150.8 150.8 0 0 1 4.648-2.663 59.331 59.331 0 0 1 3.071 2.663h2.197a65.281 65.281 0 0 0-3.814-3.453c5.454-2.918 11.292-5.594 17.472-7.841 1.618.921 5.004 3.124 7.436 6.587.179.257.539.206.802-.114.262-.32.329-.787.15-1.045-2.018-2.872-4.668-4.908-6.504-6.096a117.043 117.043 0 0 1 12.251-3.513c.633-.143 1.209-.916 1.285-1.726.075-.81-.378-1.351-1.012-1.206-8.647 1.968-16.784 4.885-24.32 8.345 4.456-9.131 8.641-14.686 8.654-14.705.251-.336.296-.8.099-1.037-.198-.237-.56-.156-.812.18-.014.019-4.676 6.21-9.446 16.262-6.026 2.852-11.652 6.042-16.832 9.362z" fill-rule="evenodd" clip-rule="evenodd" fill="#0f1734"/></svg>