<svg xmlns="http://www.w3.org/2000/svg" viewBox="0 0 58.007 58.007"><path d="M29.004 37.348c-14.108 0-25.546-5.962-25.546-12.773v8.301c0 6.811 11.438 12.333 25.546 12.333S54.55 39.687 54.55 32.876v-8.301c0 6.811-11.438 12.773-25.546 12.773" fill="#e4af18"/><path d="M6.405 38.674c.58.53 1.237 1.037 1.965 1.518v-8.146a16.465 16.465 0 0 1-1.965-1.574v8.202zM49.637 32.045v8.146c.728-.48 1.385-.988 1.965-1.518V30.47a16.042 16.042 0 0 1-1.965 1.575M10.335 41.338c.621.321 1.277.625 1.965.913V34.2a26.994 26.994 0 0 1-1.965-.958v8.096zM45.707 42.249a26.099 26.099 0 0 0 1.965-.913v-8.095a26.59 26.59 0 0 1-1.965.958v8.05zM14.265 42.993c.635.217 1.29.42 1.965.608v-7.972c-.675-.2-1.33-.416-1.965-.645v8.009zM41.777 43.601c.675-.189 1.33-.391 1.965-.608v-8.009c-.635.229-1.29.444-1.965.645v7.972zM19.178 44.309c.642.13 1.298.246 1.965.349v-7.904a43.884 43.884 0 0 1-1.965-.372v7.927zM36.864 44.659c.667-.104 1.324-.22 1.965-.349v-7.928c-.642.138-1.298.261-1.965.373v7.904zM25.073 45.111c.647.048 1.303.082 1.965.105v-7.863a48.052 48.052 0 0 1-1.965-.113v7.871zM30.969 45.216a54.188 54.188 0 0 0 1.965-.105v-7.872c-.647.052-1.303.087-1.965.114v7.863z" fill="#ce9912"/><path d="M54.55 24.582c0 6.811-11.438 12.773-25.546 12.773S3.457 31.393 3.457 24.582s11.438-11.791 25.546-11.791 25.547 4.98 25.547 11.791" fill="#fcc62d"/><path d="M29.004 33.392c-13.443 0-21.616-5.217-21.616-8.81 0-3.591 8.173-8.843 21.616-8.843s21.616 5.252 21.616 8.843c0 3.592-8.173 8.81-21.616 8.81" fill="#ffd949"/><g style="adobe-knockout:true"><path fill="#f0c41b" d="M24.666 23.058v-3.891h4.645v2.878zM37.599 22.734c.638.271.964.66.964 1.238v2.53c0 .66-.19 1.014-.463 1.19-.637.365-1.776.684-4.417.684-1.738 0-3.355-.232-4.28-.613h-.091v2.962h-4.645v-6.816l4.736-1.049c.101-.023 2.026-.466 2.785-.556a14.735 14.735 0 0 1 1.548-.055c1.502 0 2.96.12 3.863.485zm-3.689 3.778v-2.275c0-.422-.638-.778-2.277-.778-1.412 0-2.322.306-2.322.719v2.371c-.053.332.949.611 2.231.625h.091c1.83 0 2.277-.368 2.277-.662M24.666 16.749h4.645v1.204h-4.645z"/></g></svg>