<svg xmlns="http://www.w3.org/2000/svg" viewBox="0 0 58.007 58.007"><path d="M51.602 29.207v1.216c0 6.811-11.438 12.332-25.546 12.332-7.788 0-14.757-1.684-19.443-4.337 1.58 6.136 12.317 11.215 25.338 11.215 14.108 0 25.546-5.962 25.546-12.773 0-2.994-2.217-5.633-5.895-7.653" fill="#fcc62d"/><path d="M31.951 49.634c-14.109 0-25.546-5.962-25.546-12.773v8.301c0 6.811 11.438 12.333 25.546 12.333s25.546-5.522 25.546-12.333V36.86c0 6.812-11.438 12.774-25.546 12.774" fill="#e4af18"/><path d="M9.352 50.959c.58.53 1.237 1.037 1.965 1.518v-8.146a16.37 16.37 0 0 1-1.965-1.575v8.203zM52.584 44.331v8.146c.728-.48 1.385-.988 1.965-1.518v-8.203a16.137 16.137 0 0 1-1.965 1.575M13.282 53.623c.621.321 1.277.625 1.965.913v-8.05a26.994 26.994 0 0 1-1.965-.958v8.095zM48.654 54.535a26.099 26.099 0 0 0 1.965-.913v-8.095a26.59 26.59 0 0 1-1.965.958v8.05zM17.212 55.278c.635.217 1.29.42 1.965.608v-7.972c-.675-.2-1.33-.416-1.965-.645v8.009zM44.724 55.887c.675-.189 1.33-.391 1.965-.608V47.27c-.635.229-1.29.444-1.965.645v7.972zM22.125 56.594c.642.13 1.298.246 1.965.349v-7.904a44.154 44.154 0 0 1-1.965-.372v7.927zM39.811 56.943c.667-.104 1.323-.22 1.965-.349v-7.928c-.642.138-1.298.261-1.965.373v7.904zM28.02 57.395c.647.048 1.303.082 1.965.105v-7.863a48.052 48.052 0 0 1-1.965-.113v7.871zM33.916 57.501a54.188 54.188 0 0 0 1.965-.105v-7.872c-.647.052-1.303.087-1.965.114v7.863z" fill="#ce9912"/><path d="M26.055 34.889C11.947 34.889.509 28.927.509 22.116v8.301c0 6.811 11.438 12.333 25.546 12.333s25.546-5.522 25.546-12.333v-8.301c.001 6.81-11.437 12.773-25.546 12.773" fill="#e4af18"/><path d="M3.457 36.214c.58.53 1.237 1.037 1.965 1.518v-8.146a16.465 16.465 0 0 1-1.965-1.574v8.202zM46.689 29.586v8.146c.728-.48 1.385-.988 1.965-1.518v-8.203a16.214 16.214 0 0 1-1.965 1.575M7.387 38.878c.621.321 1.277.625 1.965.913v-8.05a26.994 26.994 0 0 1-1.965-.958v8.095zM42.759 39.789a26.099 26.099 0 0 0 1.965-.913v-8.095a26.59 26.59 0 0 1-1.965.958v8.05zM11.317 40.533c.635.217 1.29.42 1.965.608v-7.972c-.675-.2-1.33-.416-1.965-.645v8.009zM38.829 41.141c.675-.189 1.33-.391 1.965-.608v-8.009c-.635.229-1.29.444-1.965.645v7.972zM16.23 41.849c.642.13 1.298.246 1.965.349v-7.904a43.884 43.884 0 0 1-1.965-.372v7.927zM33.916 42.199c.667-.104 1.324-.22 1.965-.349v-7.928c-.642.138-1.298.261-1.965.373v7.904zM22.125 42.651c.647.048 1.303.082 1.965.105v-7.863a48.052 48.052 0 0 1-1.965-.113v7.871zM28.02 42.756a54.188 54.188 0 0 0 1.965-.105v-7.872c-.647.052-1.303.087-1.965.114v7.863z" fill="#ce9912"/><path d="M50.931 33.227c-2.63 5.459-12.764 9.529-24.875 9.529-4.524 0-8.77-.57-12.456-1.565 3.565 2.42 9.909 4.479 18.351 4.479 13.443 0 21.616-5.218 21.616-8.81 0-1.198-.923-2.47-2.636-3.633M30.968 32.93c-14.108 0-25.546-5.522-25.546-12.333v-5.553C2.336 16.979.509 19.405.509 22.122c0 6.811 11.438 12.773 25.546 12.773 6.793 0 12.962-1.384 17.538-3.578-3.725 1.025-8.031 1.613-12.625 1.613" fill="#ffd949"/><path d="M30.968 25.063c-14.108 0-25.546-5.962-25.546-12.773v8.301c0 6.811 11.438 12.333 25.546 12.333s25.546-5.522 25.546-12.333V12.29c.001 6.811-11.437 12.773-25.546 12.773" fill="#e4af18"/><path d="M8.369 26.388c.58.53 1.237 1.037 1.965 1.518V19.76a16.465 16.465 0 0 1-1.965-1.574v8.202zM51.602 19.76v8.146c.728-.48 1.385-.988 1.965-1.518v-8.203a16.214 16.214 0 0 1-1.965 1.575M12.3 29.052c.621.321 1.277.625 1.965.913v-8.05a26.994 26.994 0 0 1-1.965-.958v8.095zM47.672 29.964a26.099 26.099 0 0 0 1.965-.913v-8.095a26.59 26.59 0 0 1-1.965.958v8.05zM16.23 30.708c.635.217 1.29.42 1.965.608v-7.972c-.675-.2-1.33-.416-1.965-.645v8.009zM43.741 31.316c.675-.189 1.33-.391 1.965-.608v-8.009c-.635.229-1.29.444-1.965.645v7.972zM21.143 32.023c.642.13 1.298.246 1.965.349v-7.904a43.884 43.884 0 0 1-1.965-.372v7.927zM38.829 32.373c.667-.104 1.324-.22 1.965-.349v-7.928c-.642.138-1.298.261-1.965.373v7.904zM27.038 32.825c.647.048 1.303.082 1.965.105v-7.863a48.052 48.052 0 0 1-1.965-.113v7.871zM32.933 32.93a54.188 54.188 0 0 0 1.965-.105v-7.872c-.647.052-1.303.087-1.965.114v7.863z" fill="#ce9912"/><path d="M56.515 12.297c0 6.811-11.438 12.773-25.546 12.773S5.422 19.108 5.422 12.297 16.86.506 30.968.506s25.547 4.98 25.547 11.791" fill="#fcc62d"/><path d="M30.968 21.106c-13.443 0-21.616-5.217-21.616-8.81 0-3.591 8.173-8.843 21.616-8.843s21.616 5.252 21.616 8.843c0 3.593-8.173 8.81-21.616 8.81" fill="#ffd949"/><g style="adobe-knockout:true"><path fill="#f0c41b" d="M26.631 10.773V6.882h4.645V9.76zM39.563 10.449c.638.271.964.66.964 1.238v2.53c0 .66-.19 1.014-.463 1.19-.637.365-1.776.684-4.417.684-1.738 0-3.355-.232-4.28-.613h-.091v2.962h-4.645v-6.816l4.736-1.049c.101-.023 2.026-.466 2.785-.556a14.735 14.735 0 0 1 1.548-.055c1.503 0 2.96.12 3.863.485zm-3.688 3.777v-2.275c0-.422-.638-.778-2.277-.778-1.412 0-2.322.306-2.322.719v2.371c-.053.332.949.611 2.231.625h.091c1.829 0 2.277-.367 2.277-.662M26.631 4.464h4.645v1.204h-4.645z"/></g></svg>