<svg xmlns="http://www.w3.org/2000/svg" viewBox="0 0 248.9 99.1"><path d="M8.5 8.5H0V0h8.5v8.5zm0 51H0V17.1h8.5v42.4zm32.5 0h-8.5V29.9c0-2.7-1.4-4.8-4.2-4.8-3.3 0-4.3 2.4-4.3 5.8v28.6h-8.5V17.1H24v4.1h.2c1.8-2.7 4.1-4.6 8-4.6 5.3 0 8.8 4 8.8 10v32.9zM56.6 4.3v12.9h5.3v6.7h-5.3v23.3c0 2.2 0 4.3 4.2 4.3h1.1v8h-3.2c-8.6 0-10.6-5.8-10.6-10.3V23.8h-4.3v-6.7h4.3V4.3h8.5zm33.2 37.2H72.9v5.9c-.1 2.1 1.5 3.9 3.6 4h.6c2.5 0 3.9-1.5 4.2-4.3h8.5C90 54 84.7 59.7 77.9 60H77c-4.2 0-8.9-1.7-11.1-6.1-1.2-2.5-1.7-5.2-1.6-7.9V30.5c-.1-2.6.4-5.2 1.5-7.6 2.3-4.7 7.4-6.3 11.2-6.3 7.9 0 12.7 5.9 12.7 13v11.9zm-8.5-6.6V30c0-3.3-1.6-4.9-4.3-4.9-2.3 0-4.1 1.4-4.1 4.8v4.9l8.4.1zM104.1 0v47.7c0 2.7.7 3.9 4.2 4.3v8h-.3c-10.3 0-12.4-4.4-12.4-12.3V0h8.5zm38.7 39.4c.9-.3 1.9-.4 2.8-.3 2.8 0 5.4.8 7.1 3.4 1.2 1.9 1.8 4.7 1.8 8.8v17.9c0 4.7-.3 7.2-.8 8.4-1.2 2.6-3.3 4.8-8.1 4.8-3.2 0-6.2-1.6-7.9-4.3h-.2v21H129V50.8l8.7-7.4c0-.1 3.7-3.4 5.1-4m-5.3 30.1c-.1 2.4 1.7 4.3 4.1 4.4h.2c3.3 0 4.2-2.6 4.2-4.7V53.1c0-3-1.2-5.5-4.2-5.5-2.6 0-4.3 2.2-4.3 5.1v16.8zm32.5-30v29.6c0 2.7 1.4 3.2 4.2 3.2 3.3 0 4.3-.9 4.3-4.2V39.5h8.6v42.4h-8.5v-4.1h-.2c-1.8 2.7-4.1 4.6-8 4.6-5.3 0-8.8-4-8.8-10V39.5h8.4zm39.5 11.9c.1-2.4-1.8-4.3-4.2-4.3h-.2c-2.2 0-4.1 1.7-4.1 4v.3c0 2.1.9 3.1 2.8 4s4.4 1.7 6.8 2.8c4.9 2.2 7.4 6.2 7.4 11.5.1 6.9-5.4 12.7-12.3 12.8h-.4c-7.1 0-12.5-5-12.7-12.8h8c.3 2.3 1.3 4.8 4.6 4.8 2.5.1 4.6-1.8 4.8-4.4v-.2c0-3.3-1.9-4.3-5.6-5.7-2.1-.6-4.1-1.5-5.9-2.6-3.5-2.2-5.6-6-5.4-10.1 0-6.8 5.5-12.3 12.3-12.4h.3c6.8 0 11.8 4.9 12 12.4l-8.2-.1zm22.5-29v21.2h.2c1.8-2.7 4.1-4.6 8-4.6 5.3 0 8.8 4 8.8 10v32.9h-8.5V52.3c0-2.7-1.4-4.8-4.2-4.8-3.4 0-4.3 2.4-4.3 5.6v28.8h-8.5V22.4h8.5zM119.7 0v47.7c0 2.7.7 3.9 4.2 4.3v8h-.2c-10.3 0-12.5-4.4-12.5-12.3V0h8.5zm17.8 8.5H129V0h8.5v8.5zm0 8.6v20.4l-8.5 7.2V17.1h8.5z" fill="#ffffff"/></svg>